%TF.GenerationSoftware,KiCad,Pcbnew,(6.0.4)*%
%TF.CreationDate,2022-06-07T17:35:18+05:30*%
%TF.ProjectId,sneka batch,736e656b-6120-4626-9174-63682e6b6963,rev?*%
%TF.SameCoordinates,Original*%
%TF.FileFunction,Copper,L1,Top*%
%TF.FilePolarity,Positive*%
%FSLAX46Y46*%
G04 Gerber Fmt 4.6, Leading zero omitted, Abs format (unit mm)*
G04 Created by KiCad (PCBNEW (6.0.4)) date 2022-06-07 17:35:18*
%MOMM*%
%LPD*%
G01*
G04 APERTURE LIST*
%TA.AperFunction,ComponentPad*%
%ADD10R,3.000000X3.000000*%
%TD*%
%TA.AperFunction,ComponentPad*%
%ADD11C,3.000000*%
%TD*%
%TA.AperFunction,ComponentPad*%
%ADD12C,1.620000*%
%TD*%
%TA.AperFunction,ComponentPad*%
%ADD13C,1.400000*%
%TD*%
%TA.AperFunction,ComponentPad*%
%ADD14O,1.400000X1.400000*%
%TD*%
%TA.AperFunction,ComponentPad*%
%ADD15R,1.500000X1.050000*%
%TD*%
%TA.AperFunction,ComponentPad*%
%ADD16O,1.500000X1.050000*%
%TD*%
%TA.AperFunction,ComponentPad*%
%ADD17R,1.050000X1.500000*%
%TD*%
%TA.AperFunction,ComponentPad*%
%ADD18O,1.050000X1.500000*%
%TD*%
%TA.AperFunction,ComponentPad*%
%ADD19R,2.500000X2.500000*%
%TD*%
%TA.AperFunction,ComponentPad*%
%ADD20O,2.500000X2.500000*%
%TD*%
%TA.AperFunction,ComponentPad*%
%ADD21R,2.200000X2.200000*%
%TD*%
%TA.AperFunction,ComponentPad*%
%ADD22O,2.200000X2.200000*%
%TD*%
%TA.AperFunction,Conductor*%
%ADD23C,0.500000*%
%TD*%
%TA.AperFunction,Conductor*%
%ADD24C,0.250000*%
%TD*%
G04 APERTURE END LIST*
D10*
%TO.P,J2,1,Pin_1*%
%TO.N,Net-(D1-Pad1)*%
X127000000Y-60960000D03*
D11*
%TO.P,J2,2,Pin_2*%
%TO.N,Net-(Q1-Pad1)*%
X127000000Y-64840000D03*
%TD*%
D12*
%TO.P,RV1,1,1*%
%TO.N,Net-(J1-Pad2)*%
X147360000Y-73620000D03*
%TO.P,RV1,2,2*%
X149860000Y-71120000D03*
%TO.P,RV1,3,3*%
%TO.N,Net-(Q1-Pad1)*%
X152360000Y-73620000D03*
%TD*%
D13*
%TO.P,R1,1*%
%TO.N,Net-(D1-Pad1)*%
X170180000Y-63500000D03*
D14*
%TO.P,R1,2*%
%TO.N,Net-(Q1-Pad3)*%
X170180000Y-68580000D03*
%TD*%
D15*
%TO.P,Q2,1,E*%
%TO.N,Net-(Q1-Pad1)*%
X147320000Y-63500000D03*
D16*
%TO.P,Q2,2,B*%
%TO.N,Net-(Q1-Pad3)*%
X147320000Y-62230000D03*
%TO.P,Q2,3,C*%
%TO.N,Net-(D1-Pad2)*%
X147320000Y-60960000D03*
%TD*%
D17*
%TO.P,Q1,1,E*%
%TO.N,Net-(Q1-Pad1)*%
X160020000Y-71120000D03*
D18*
%TO.P,Q1,2,B*%
%TO.N,Net-(J1-Pad2)*%
X161290000Y-71120000D03*
%TO.P,Q1,3,C*%
%TO.N,Net-(Q1-Pad3)*%
X162560000Y-71120000D03*
%TD*%
D19*
%TO.P,K1,1*%
%TO.N,Net-(D1-Pad1)*%
X126752500Y-54457500D03*
D20*
%TO.P,K1,3*%
%TO.N,unconnected-(K1-Pad3)*%
X147752500Y-54457500D03*
%TO.P,K1,5*%
%TO.N,unconnected-(K1-Pad5)*%
X144252500Y-46957500D03*
%TO.P,K1,6*%
%TO.N,Net-(D1-Pad2)*%
X126752500Y-46957500D03*
%TD*%
D10*
%TO.P,J1,1,Pin_1*%
%TO.N,Net-(D1-Pad1)*%
X129540000Y-71120000D03*
D11*
%TO.P,J1,2,Pin_2*%
%TO.N,Net-(J1-Pad2)*%
X129540000Y-75000000D03*
%TD*%
D21*
%TO.P,D1,1,K*%
%TO.N,Net-(D1-Pad1)*%
X165100000Y-58420000D03*
D22*
%TO.P,D1,2,A*%
%TO.N,Net-(D1-Pad2)*%
X154940000Y-58420000D03*
%TD*%
D23*
%TO.N,Net-(Q1-Pad1)*%
X160020000Y-71120000D02*
X152400000Y-71120000D01*
%TO.N,Net-(Q1-Pad3)*%
X162560000Y-71120000D02*
X167640000Y-71120000D01*
X162560000Y-69870000D02*
X162560000Y-71120000D01*
X167640000Y-71120000D02*
X170180000Y-68580000D01*
X154920000Y-62230000D02*
X162560000Y-69870000D01*
X147320000Y-62230000D02*
X154920000Y-62230000D01*
%TO.N,Net-(Q1-Pad1)*%
X152360000Y-68540000D02*
X147320000Y-63500000D01*
X152360000Y-73620000D02*
X152360000Y-68540000D01*
%TO.N,Net-(D1-Pad1)*%
X127000000Y-54705000D02*
X126752500Y-54457500D01*
X127000000Y-60960000D02*
X127000000Y-54705000D01*
%TO.N,Net-(Q1-Pad1)*%
X127000000Y-64840000D02*
X145980000Y-64840000D01*
X145980000Y-64840000D02*
X147320000Y-63500000D01*
%TO.N,Net-(D1-Pad1)*%
X124460000Y-63500000D02*
X127000000Y-60960000D01*
X124460000Y-71120000D02*
X124460000Y-63500000D01*
%TO.N,Net-(J1-Pad2)*%
X147360000Y-73620000D02*
X147360000Y-76160000D01*
X147360000Y-76160000D02*
X147320000Y-76200000D01*
X147360000Y-73620000D02*
X149860000Y-71120000D01*
X130740000Y-76200000D02*
X129540000Y-75000000D01*
X157480000Y-76200000D02*
X130740000Y-76200000D01*
X161290000Y-72390000D02*
X157480000Y-76200000D01*
X161290000Y-71120000D02*
X161290000Y-72390000D01*
%TO.N,Net-(D1-Pad1)*%
X124460000Y-71120000D02*
X129540000Y-71120000D01*
X124460000Y-78740000D02*
X121920000Y-76200000D01*
X121920000Y-73660000D02*
X124460000Y-71120000D01*
X167640000Y-78740000D02*
X124460000Y-78740000D01*
X172720000Y-66040000D02*
X172720000Y-73660000D01*
X172720000Y-73660000D02*
X167640000Y-78740000D01*
X170180000Y-63500000D02*
X172720000Y-66040000D01*
X121920000Y-76200000D02*
X121920000Y-73660000D01*
X165100000Y-58420000D02*
X170180000Y-63500000D01*
%TO.N,Net-(D1-Pad2)*%
X152400000Y-60960000D02*
X154940000Y-58420000D01*
X147320000Y-60960000D02*
X152400000Y-60960000D01*
X133317500Y-46957500D02*
X147320000Y-60960000D01*
X126752500Y-46957500D02*
X133317500Y-46957500D01*
D24*
%TO.N,Net-(Q1-Pad1)*%
X147320000Y-63500000D02*
X147545000Y-63500000D01*
%TO.N,Net-(Q1-Pad3)*%
X162560000Y-71120000D02*
X162560000Y-70895000D01*
%TD*%
%TA.AperFunction,NonConductor*%
G36*
X154621750Y-63008502D02*
G01*
X154642724Y-63025405D01*
X161268915Y-69651596D01*
X161302941Y-69713908D01*
X161297876Y-69784723D01*
X161255329Y-69841559D01*
X161191240Y-69866172D01*
X161101543Y-69874335D01*
X161101540Y-69874336D01*
X161095404Y-69874894D01*
X161089498Y-69876632D01*
X161089494Y-69876633D01*
X160906879Y-69930380D01*
X160906877Y-69930381D01*
X160905493Y-69930788D01*
X160900971Y-69932119D01*
X160900718Y-69931260D01*
X160835338Y-69937714D01*
X160798594Y-69924548D01*
X160791705Y-69919385D01*
X160783304Y-69916236D01*
X160783301Y-69916234D01*
X160702586Y-69885976D01*
X160655316Y-69868255D01*
X160593134Y-69861500D01*
X159446866Y-69861500D01*
X159384684Y-69868255D01*
X159248295Y-69919385D01*
X159131739Y-70006739D01*
X159044385Y-70123295D01*
X158993255Y-70259684D01*
X158992628Y-70265453D01*
X158957874Y-70326291D01*
X158894919Y-70359113D01*
X158870507Y-70361500D01*
X153244500Y-70361500D01*
X153176379Y-70341498D01*
X153129886Y-70287842D01*
X153118500Y-70235500D01*
X153118500Y-68607063D01*
X153119933Y-68588114D01*
X153122097Y-68573886D01*
X153123198Y-68566651D01*
X153118915Y-68513990D01*
X153118500Y-68503777D01*
X153118500Y-68495707D01*
X153118078Y-68492087D01*
X153118077Y-68492069D01*
X153115208Y-68467461D01*
X153114775Y-68463086D01*
X153109454Y-68397661D01*
X153109453Y-68397658D01*
X153108860Y-68390363D01*
X153106604Y-68383399D01*
X153105413Y-68377440D01*
X153104029Y-68371585D01*
X153103182Y-68364319D01*
X153078265Y-68295673D01*
X153076848Y-68291545D01*
X153056607Y-68229064D01*
X153056606Y-68229062D01*
X153054351Y-68222101D01*
X153050555Y-68215846D01*
X153048049Y-68210372D01*
X153045330Y-68204942D01*
X153042833Y-68198063D01*
X153002809Y-68137016D01*
X153000472Y-68133312D01*
X152965509Y-68075693D01*
X152965505Y-68075688D01*
X152962595Y-68070892D01*
X152955197Y-68062516D01*
X152955223Y-68062493D01*
X152952574Y-68059503D01*
X152949866Y-68056264D01*
X152945856Y-68050148D01*
X152940549Y-68045121D01*
X152940546Y-68045117D01*
X152889617Y-67996872D01*
X152887175Y-67994494D01*
X148615405Y-63722724D01*
X148581379Y-63660412D01*
X148578500Y-63633629D01*
X148578500Y-63114500D01*
X148598502Y-63046379D01*
X148652158Y-62999886D01*
X148704500Y-62988500D01*
X154553629Y-62988500D01*
X154621750Y-63008502D01*
G37*
%TD.AperFunction*%
%TA.AperFunction,NonConductor*%
G36*
X147364032Y-64632815D02*
G01*
X147409095Y-64661776D01*
X151564595Y-68817276D01*
X151598621Y-68879588D01*
X151601500Y-68906371D01*
X151601500Y-72475926D01*
X151581498Y-72544047D01*
X151547770Y-72579139D01*
X151509247Y-72606113D01*
X151346113Y-72769247D01*
X151213784Y-72958232D01*
X151211461Y-72963214D01*
X151211458Y-72963219D01*
X151163891Y-73065229D01*
X151116283Y-73167324D01*
X151056571Y-73390170D01*
X151036464Y-73620000D01*
X151056571Y-73849830D01*
X151116283Y-74072676D01*
X151147371Y-74139345D01*
X151211458Y-74276781D01*
X151211461Y-74276786D01*
X151213784Y-74281768D01*
X151216941Y-74286276D01*
X151340551Y-74462809D01*
X151346113Y-74470753D01*
X151509247Y-74633887D01*
X151513755Y-74637044D01*
X151513758Y-74637046D01*
X151592630Y-74692272D01*
X151698232Y-74766216D01*
X151703214Y-74768539D01*
X151703219Y-74768542D01*
X151809558Y-74818128D01*
X151907324Y-74863717D01*
X152130170Y-74923429D01*
X152360000Y-74943536D01*
X152589830Y-74923429D01*
X152812676Y-74863717D01*
X152910442Y-74818128D01*
X153016781Y-74768542D01*
X153016786Y-74768539D01*
X153021768Y-74766216D01*
X153127370Y-74692272D01*
X153206242Y-74637046D01*
X153206245Y-74637044D01*
X153210753Y-74633887D01*
X153373887Y-74470753D01*
X153379450Y-74462809D01*
X153503059Y-74286276D01*
X153506216Y-74281768D01*
X153508539Y-74276786D01*
X153508542Y-74276781D01*
X153572629Y-74139345D01*
X153603717Y-74072676D01*
X153663429Y-73849830D01*
X153683536Y-73620000D01*
X153663429Y-73390170D01*
X153603717Y-73167324D01*
X153556109Y-73065229D01*
X153508542Y-72963219D01*
X153508539Y-72963214D01*
X153506216Y-72958232D01*
X153373887Y-72769247D01*
X153210753Y-72606113D01*
X153172230Y-72579139D01*
X153127901Y-72523682D01*
X153118500Y-72475926D01*
X153118500Y-72004500D01*
X153138502Y-71936379D01*
X153192158Y-71889886D01*
X153244500Y-71878500D01*
X158870507Y-71878500D01*
X158938628Y-71898502D01*
X158985121Y-71952158D01*
X158992543Y-71973763D01*
X158993255Y-71980316D01*
X159044385Y-72116705D01*
X159131739Y-72233261D01*
X159248295Y-72320615D01*
X159384684Y-72371745D01*
X159446866Y-72378500D01*
X159924629Y-72378500D01*
X159992750Y-72398502D01*
X160039243Y-72452158D01*
X160049347Y-72522432D01*
X160019853Y-72587012D01*
X160013724Y-72593595D01*
X157202724Y-75404595D01*
X157140412Y-75438621D01*
X157113629Y-75441500D01*
X148244500Y-75441500D01*
X148176379Y-75421498D01*
X148129886Y-75367842D01*
X148118500Y-75315500D01*
X148118500Y-74764074D01*
X148138502Y-74695953D01*
X148172230Y-74660861D01*
X148206241Y-74637046D01*
X148210753Y-74633887D01*
X148373887Y-74470753D01*
X148379450Y-74462809D01*
X148503059Y-74286276D01*
X148506216Y-74281768D01*
X148508539Y-74276786D01*
X148508542Y-74276781D01*
X148572629Y-74139345D01*
X148603717Y-74072676D01*
X148663429Y-73849830D01*
X148683536Y-73620000D01*
X148680103Y-73580755D01*
X148668476Y-73447855D01*
X148682466Y-73378250D01*
X148704902Y-73347779D01*
X149587779Y-72464902D01*
X149650091Y-72430876D01*
X149687855Y-72428476D01*
X149854525Y-72443057D01*
X149860000Y-72443536D01*
X150089830Y-72423429D01*
X150312676Y-72363717D01*
X150417435Y-72314867D01*
X150516781Y-72268542D01*
X150516786Y-72268539D01*
X150521768Y-72266216D01*
X150627370Y-72192272D01*
X150706242Y-72137046D01*
X150706245Y-72137044D01*
X150710753Y-72133887D01*
X150873887Y-71970753D01*
X150886908Y-71952158D01*
X150950956Y-71860687D01*
X151006216Y-71781768D01*
X151008539Y-71776786D01*
X151008542Y-71776781D01*
X151101392Y-71577661D01*
X151103717Y-71572676D01*
X151163429Y-71349830D01*
X151183536Y-71120000D01*
X151163429Y-70890170D01*
X151103717Y-70667324D01*
X151058128Y-70569558D01*
X151008542Y-70463219D01*
X151008539Y-70463214D01*
X151006216Y-70458232D01*
X150897956Y-70303621D01*
X150877046Y-70273758D01*
X150877044Y-70273755D01*
X150873887Y-70269247D01*
X150710753Y-70106113D01*
X150706245Y-70102956D01*
X150706242Y-70102954D01*
X150627370Y-70047728D01*
X150521768Y-69973784D01*
X150516786Y-69971461D01*
X150516781Y-69971458D01*
X150398349Y-69916233D01*
X150312676Y-69876283D01*
X150089830Y-69816571D01*
X149860000Y-69796464D01*
X149630170Y-69816571D01*
X149407324Y-69876283D01*
X149321651Y-69916233D01*
X149203219Y-69971458D01*
X149203214Y-69971461D01*
X149198232Y-69973784D01*
X149092630Y-70047728D01*
X149013758Y-70102954D01*
X149013755Y-70102956D01*
X149009247Y-70106113D01*
X148846113Y-70269247D01*
X148842956Y-70273755D01*
X148842954Y-70273758D01*
X148822044Y-70303621D01*
X148713784Y-70458232D01*
X148711461Y-70463214D01*
X148711458Y-70463219D01*
X148661872Y-70569558D01*
X148616283Y-70667324D01*
X148556571Y-70890170D01*
X148536464Y-71120000D01*
X148536943Y-71125475D01*
X148551524Y-71292145D01*
X148537534Y-71361750D01*
X148515098Y-71392221D01*
X147632221Y-72275098D01*
X147569909Y-72309124D01*
X147532145Y-72311524D01*
X147365475Y-72296943D01*
X147360000Y-72296464D01*
X147130170Y-72316571D01*
X146907324Y-72376283D01*
X146809558Y-72421872D01*
X146703219Y-72471458D01*
X146703214Y-72471461D01*
X146698232Y-72473784D01*
X146597886Y-72544047D01*
X146513758Y-72602954D01*
X146513755Y-72602956D01*
X146509247Y-72606113D01*
X146346113Y-72769247D01*
X146213784Y-72958232D01*
X146211461Y-72963214D01*
X146211458Y-72963219D01*
X146163891Y-73065229D01*
X146116283Y-73167324D01*
X146056571Y-73390170D01*
X146036464Y-73620000D01*
X146056571Y-73849830D01*
X146116283Y-74072676D01*
X146147371Y-74139345D01*
X146211458Y-74276781D01*
X146211461Y-74276786D01*
X146213784Y-74281768D01*
X146216941Y-74286276D01*
X146340551Y-74462809D01*
X146346113Y-74470753D01*
X146509247Y-74633887D01*
X146513759Y-74637046D01*
X146547770Y-74660861D01*
X146592099Y-74716318D01*
X146601500Y-74764074D01*
X146601500Y-75315500D01*
X146581498Y-75383621D01*
X146527842Y-75430114D01*
X146475500Y-75441500D01*
X131654857Y-75441500D01*
X131586736Y-75421498D01*
X131540243Y-75367842D01*
X131529356Y-75304299D01*
X131552531Y-75044627D01*
X131552531Y-75044625D01*
X131552751Y-75042161D01*
X131553193Y-75000000D01*
X131547876Y-74922006D01*
X131534859Y-74731055D01*
X131534858Y-74731049D01*
X131534567Y-74726778D01*
X131528184Y-74695953D01*
X131479901Y-74462809D01*
X131479032Y-74458612D01*
X131387617Y-74200465D01*
X131262013Y-73957112D01*
X131252040Y-73942921D01*
X131170885Y-73827449D01*
X131104545Y-73733057D01*
X130964013Y-73581826D01*
X130921046Y-73535588D01*
X130921043Y-73535585D01*
X130918125Y-73532445D01*
X130914810Y-73529731D01*
X130914806Y-73529728D01*
X130709523Y-73361706D01*
X130706205Y-73358990D01*
X130703095Y-73357084D01*
X130659251Y-73301439D01*
X130652436Y-73230771D01*
X130684909Y-73167636D01*
X130746360Y-73132080D01*
X130776181Y-73128500D01*
X131088134Y-73128500D01*
X131150316Y-73121745D01*
X131286705Y-73070615D01*
X131403261Y-72983261D01*
X131490615Y-72866705D01*
X131541745Y-72730316D01*
X131548500Y-72668134D01*
X131548500Y-69571866D01*
X131541745Y-69509684D01*
X131490615Y-69373295D01*
X131403261Y-69256739D01*
X131286705Y-69169385D01*
X131150316Y-69118255D01*
X131088134Y-69111500D01*
X127991866Y-69111500D01*
X127929684Y-69118255D01*
X127793295Y-69169385D01*
X127676739Y-69256739D01*
X127589385Y-69373295D01*
X127538255Y-69509684D01*
X127531500Y-69571866D01*
X127531500Y-70235500D01*
X127511498Y-70303621D01*
X127457842Y-70350114D01*
X127405500Y-70361500D01*
X125344500Y-70361500D01*
X125276379Y-70341498D01*
X125229886Y-70287842D01*
X125218500Y-70235500D01*
X125218500Y-66192235D01*
X125238502Y-66124114D01*
X125292158Y-66077621D01*
X125362432Y-66067517D01*
X125427012Y-66097011D01*
X125437690Y-66107432D01*
X125606582Y-66293043D01*
X125609877Y-66295798D01*
X125609878Y-66295799D01*
X125654382Y-66333010D01*
X125816675Y-66468707D01*
X125820316Y-66470991D01*
X126045024Y-66611951D01*
X126045028Y-66611953D01*
X126048664Y-66614234D01*
X126116544Y-66644883D01*
X126294345Y-66725164D01*
X126294349Y-66725166D01*
X126298257Y-66726930D01*
X126302377Y-66728150D01*
X126302376Y-66728150D01*
X126556723Y-66803491D01*
X126556727Y-66803492D01*
X126560836Y-66804709D01*
X126565070Y-66805357D01*
X126565075Y-66805358D01*
X126827298Y-66845483D01*
X126827300Y-66845483D01*
X126831540Y-66846132D01*
X126970912Y-66848322D01*
X127101071Y-66850367D01*
X127101077Y-66850367D01*
X127105362Y-66850434D01*
X127377235Y-66817534D01*
X127642127Y-66748041D01*
X127646087Y-66746401D01*
X127646092Y-66746399D01*
X127768631Y-66695641D01*
X127895136Y-66643241D01*
X128131582Y-66505073D01*
X128347089Y-66336094D01*
X128388809Y-66293043D01*
X128534686Y-66142509D01*
X128537669Y-66139431D01*
X128540202Y-66135983D01*
X128540206Y-66135978D01*
X128697257Y-65922178D01*
X128699795Y-65918723D01*
X128722210Y-65877440D01*
X128828420Y-65681827D01*
X128828423Y-65681820D01*
X128830468Y-65678054D01*
X128831986Y-65674037D01*
X128832895Y-65672051D01*
X128879438Y-65618439D01*
X128947460Y-65598500D01*
X145912930Y-65598500D01*
X145931880Y-65599933D01*
X145946115Y-65602099D01*
X145946119Y-65602099D01*
X145953349Y-65603199D01*
X145960641Y-65602606D01*
X145960644Y-65602606D01*
X146006018Y-65598915D01*
X146016233Y-65598500D01*
X146024293Y-65598500D01*
X146037583Y-65596951D01*
X146052507Y-65595211D01*
X146056882Y-65594778D01*
X146122339Y-65589454D01*
X146122342Y-65589453D01*
X146129637Y-65588860D01*
X146136601Y-65586604D01*
X146142560Y-65585413D01*
X146148415Y-65584029D01*
X146155681Y-65583182D01*
X146224327Y-65558265D01*
X146228455Y-65556848D01*
X146290936Y-65536607D01*
X146290938Y-65536606D01*
X146297899Y-65534351D01*
X146304154Y-65530555D01*
X146309628Y-65528049D01*
X146315058Y-65525330D01*
X146321937Y-65522833D01*
X146361534Y-65496872D01*
X146382976Y-65482814D01*
X146386680Y-65480477D01*
X146449107Y-65442595D01*
X146457484Y-65435197D01*
X146457508Y-65435224D01*
X146460500Y-65432571D01*
X146463733Y-65429868D01*
X146469852Y-65425856D01*
X146523128Y-65369617D01*
X146525506Y-65367175D01*
X147230905Y-64661776D01*
X147293217Y-64627750D01*
X147364032Y-64632815D01*
G37*
%TD.AperFunction*%
%TA.AperFunction,NonConductor*%
G36*
X187902121Y-33040002D02*
G01*
X187948614Y-33093658D01*
X187960000Y-33146000D01*
X187960000Y-88774000D01*
X187939998Y-88842121D01*
X187886342Y-88888614D01*
X187834000Y-88900000D01*
X104266000Y-88900000D01*
X104197879Y-88879998D01*
X104151386Y-88826342D01*
X104140000Y-88774000D01*
X104140000Y-76173349D01*
X121156801Y-76173349D01*
X121157394Y-76180641D01*
X121157394Y-76180644D01*
X121161085Y-76226018D01*
X121161500Y-76236233D01*
X121161500Y-76244293D01*
X121163049Y-76257583D01*
X121164789Y-76272507D01*
X121165222Y-76276882D01*
X121171140Y-76349637D01*
X121173396Y-76356601D01*
X121174587Y-76362560D01*
X121175971Y-76368415D01*
X121176818Y-76375681D01*
X121201735Y-76444327D01*
X121203152Y-76448455D01*
X121225649Y-76517899D01*
X121229445Y-76524154D01*
X121231951Y-76529628D01*
X121234670Y-76535058D01*
X121237167Y-76541937D01*
X121241180Y-76548057D01*
X121241180Y-76548058D01*
X121277186Y-76602976D01*
X121279523Y-76606680D01*
X121317405Y-76669107D01*
X121321121Y-76673315D01*
X121321122Y-76673316D01*
X121324803Y-76677484D01*
X121324776Y-76677508D01*
X121327429Y-76680500D01*
X121330132Y-76683733D01*
X121334144Y-76689852D01*
X121339456Y-76694884D01*
X121390383Y-76743128D01*
X121392825Y-76745506D01*
X123876230Y-79228911D01*
X123888616Y-79243323D01*
X123897149Y-79254918D01*
X123897154Y-79254923D01*
X123901492Y-79260818D01*
X123907070Y-79265557D01*
X123907073Y-79265560D01*
X123941768Y-79295035D01*
X123949284Y-79301965D01*
X123954979Y-79307660D01*
X123957861Y-79309940D01*
X123977251Y-79325281D01*
X123980655Y-79328072D01*
X124030703Y-79370591D01*
X124036285Y-79375333D01*
X124042801Y-79378661D01*
X124047838Y-79382020D01*
X124052977Y-79385194D01*
X124058716Y-79389734D01*
X124065349Y-79392834D01*
X124124837Y-79420636D01*
X124128791Y-79422569D01*
X124193808Y-79455769D01*
X124200924Y-79457510D01*
X124206554Y-79459604D01*
X124212321Y-79461523D01*
X124218950Y-79464621D01*
X124226110Y-79466110D01*
X124226112Y-79466111D01*
X124290396Y-79479482D01*
X124294680Y-79480452D01*
X124365610Y-79497808D01*
X124371212Y-79498156D01*
X124371215Y-79498156D01*
X124376764Y-79498500D01*
X124376762Y-79498536D01*
X124380752Y-79498775D01*
X124384950Y-79499150D01*
X124392115Y-79500640D01*
X124469520Y-79498546D01*
X124472928Y-79498500D01*
X167572930Y-79498500D01*
X167591880Y-79499933D01*
X167606115Y-79502099D01*
X167606119Y-79502099D01*
X167613349Y-79503199D01*
X167620641Y-79502606D01*
X167620644Y-79502606D01*
X167666018Y-79498915D01*
X167676233Y-79498500D01*
X167684293Y-79498500D01*
X167701680Y-79496473D01*
X167712507Y-79495211D01*
X167716882Y-79494778D01*
X167782339Y-79489454D01*
X167782342Y-79489453D01*
X167789637Y-79488860D01*
X167796601Y-79486604D01*
X167802560Y-79485413D01*
X167808415Y-79484029D01*
X167815681Y-79483182D01*
X167884327Y-79458265D01*
X167888455Y-79456848D01*
X167950936Y-79436607D01*
X167950938Y-79436606D01*
X167957899Y-79434351D01*
X167964154Y-79430555D01*
X167969628Y-79428049D01*
X167975058Y-79425330D01*
X167981937Y-79422833D01*
X168042976Y-79382814D01*
X168046680Y-79380477D01*
X168109107Y-79342595D01*
X168117484Y-79335197D01*
X168117508Y-79335224D01*
X168120500Y-79332571D01*
X168123733Y-79329868D01*
X168129852Y-79325856D01*
X168183128Y-79269617D01*
X168185506Y-79267175D01*
X173208911Y-74243770D01*
X173223323Y-74231384D01*
X173234918Y-74222851D01*
X173234923Y-74222846D01*
X173240818Y-74218508D01*
X173245557Y-74212930D01*
X173245560Y-74212927D01*
X173275035Y-74178232D01*
X173281965Y-74170716D01*
X173287660Y-74165021D01*
X173305281Y-74142749D01*
X173308072Y-74139345D01*
X173350591Y-74089297D01*
X173350592Y-74089295D01*
X173355333Y-74083715D01*
X173358661Y-74077199D01*
X173362028Y-74072150D01*
X173365195Y-74067021D01*
X173369734Y-74061284D01*
X173400655Y-73995125D01*
X173402561Y-73991225D01*
X173421770Y-73953607D01*
X173435769Y-73926192D01*
X173437508Y-73919084D01*
X173439607Y-73913441D01*
X173441524Y-73907678D01*
X173444622Y-73901050D01*
X173459487Y-73829583D01*
X173460457Y-73825299D01*
X173476473Y-73759845D01*
X173477808Y-73754390D01*
X173478500Y-73743236D01*
X173478536Y-73743238D01*
X173478775Y-73739245D01*
X173479149Y-73735053D01*
X173480640Y-73727885D01*
X173478546Y-73650479D01*
X173478500Y-73647072D01*
X173478500Y-66107063D01*
X173479933Y-66088114D01*
X173482097Y-66073886D01*
X173483198Y-66066651D01*
X173478915Y-66013990D01*
X173478500Y-66003777D01*
X173478500Y-65995707D01*
X173478078Y-65992087D01*
X173478077Y-65992069D01*
X173475208Y-65967461D01*
X173474775Y-65963086D01*
X173469454Y-65897661D01*
X173469453Y-65897658D01*
X173468860Y-65890363D01*
X173466604Y-65883399D01*
X173465413Y-65877440D01*
X173464029Y-65871585D01*
X173463182Y-65864319D01*
X173438265Y-65795673D01*
X173436848Y-65791545D01*
X173416607Y-65729064D01*
X173416606Y-65729062D01*
X173414351Y-65722101D01*
X173410555Y-65715846D01*
X173408049Y-65710372D01*
X173405330Y-65704942D01*
X173402833Y-65698063D01*
X173362809Y-65637016D01*
X173360472Y-65633312D01*
X173325509Y-65575693D01*
X173325505Y-65575688D01*
X173322595Y-65570892D01*
X173315197Y-65562516D01*
X173315223Y-65562493D01*
X173312574Y-65559503D01*
X173309866Y-65556264D01*
X173305856Y-65550148D01*
X173300549Y-65545121D01*
X173300546Y-65545117D01*
X173249617Y-65496872D01*
X173247175Y-65494494D01*
X171423365Y-63670684D01*
X171389339Y-63608372D01*
X171386939Y-63570608D01*
X171392637Y-63505476D01*
X171392637Y-63505475D01*
X171393116Y-63500000D01*
X171374686Y-63289345D01*
X171359805Y-63233808D01*
X171321379Y-63090400D01*
X171321378Y-63090398D01*
X171319956Y-63085090D01*
X171301836Y-63046232D01*
X171232912Y-62898423D01*
X171232910Y-62898420D01*
X171230589Y-62893442D01*
X171109301Y-62720224D01*
X170959776Y-62570699D01*
X170786558Y-62449411D01*
X170781580Y-62447090D01*
X170781577Y-62447088D01*
X170599892Y-62362367D01*
X170599891Y-62362366D01*
X170594910Y-62360044D01*
X170589602Y-62358622D01*
X170589600Y-62358621D01*
X170395970Y-62306738D01*
X170395968Y-62306738D01*
X170390655Y-62305314D01*
X170180000Y-62286884D01*
X170174525Y-62287363D01*
X170174524Y-62287363D01*
X170109392Y-62293061D01*
X170039787Y-62279071D01*
X170009316Y-62256635D01*
X166745405Y-58992724D01*
X166711379Y-58930412D01*
X166708500Y-58903629D01*
X166708500Y-57271866D01*
X166701745Y-57209684D01*
X166650615Y-57073295D01*
X166563261Y-56956739D01*
X166446705Y-56869385D01*
X166310316Y-56818255D01*
X166248134Y-56811500D01*
X163951866Y-56811500D01*
X163889684Y-56818255D01*
X163753295Y-56869385D01*
X163636739Y-56956739D01*
X163549385Y-57073295D01*
X163498255Y-57209684D01*
X163491500Y-57271866D01*
X163491500Y-59568134D01*
X163498255Y-59630316D01*
X163549385Y-59766705D01*
X163636739Y-59883261D01*
X163753295Y-59970615D01*
X163889684Y-60021745D01*
X163951866Y-60028500D01*
X165583629Y-60028500D01*
X165651750Y-60048502D01*
X165672724Y-60065405D01*
X168936635Y-63329316D01*
X168970661Y-63391628D01*
X168973061Y-63429392D01*
X168966884Y-63500000D01*
X168985314Y-63710655D01*
X169040044Y-63914910D01*
X169042366Y-63919891D01*
X169042367Y-63919892D01*
X169116384Y-64078621D01*
X169129411Y-64106558D01*
X169250699Y-64279776D01*
X169400224Y-64429301D01*
X169573442Y-64550589D01*
X169578420Y-64552910D01*
X169578423Y-64552912D01*
X169620818Y-64572681D01*
X169765090Y-64639956D01*
X169770398Y-64641378D01*
X169770400Y-64641379D01*
X169964030Y-64693262D01*
X169964032Y-64693262D01*
X169969345Y-64694686D01*
X170180000Y-64713116D01*
X170185475Y-64712637D01*
X170185476Y-64712637D01*
X170250608Y-64706939D01*
X170320213Y-64720929D01*
X170350684Y-64743365D01*
X171924595Y-66317276D01*
X171958621Y-66379588D01*
X171961500Y-66406371D01*
X171961500Y-73293629D01*
X171941498Y-73361750D01*
X171924595Y-73382724D01*
X167362724Y-77944595D01*
X167300412Y-77978621D01*
X167273629Y-77981500D01*
X124826371Y-77981500D01*
X124758250Y-77961498D01*
X124737276Y-77944595D01*
X122715405Y-75922724D01*
X122681379Y-75860412D01*
X122678500Y-75833629D01*
X122678500Y-74026371D01*
X122698502Y-73958250D01*
X122715405Y-73937276D01*
X124737276Y-71915405D01*
X124799588Y-71881379D01*
X124826371Y-71878500D01*
X127405500Y-71878500D01*
X127473621Y-71898502D01*
X127520114Y-71952158D01*
X127531500Y-72004500D01*
X127531500Y-72668134D01*
X127538255Y-72730316D01*
X127589385Y-72866705D01*
X127676739Y-72983261D01*
X127793295Y-73070615D01*
X127929684Y-73121745D01*
X127991866Y-73128500D01*
X128304815Y-73128500D01*
X128372936Y-73148502D01*
X128419429Y-73202158D01*
X128429533Y-73272432D01*
X128400039Y-73337012D01*
X128383596Y-73352834D01*
X128177318Y-73518094D01*
X128160717Y-73535588D01*
X128053303Y-73648779D01*
X127988808Y-73716742D01*
X127829002Y-73939136D01*
X127700857Y-74181161D01*
X127699385Y-74185184D01*
X127699383Y-74185188D01*
X127662390Y-74286276D01*
X127606743Y-74438337D01*
X127548404Y-74705907D01*
X127526917Y-74978918D01*
X127542682Y-75252320D01*
X127543507Y-75256525D01*
X127543508Y-75256533D01*
X127554966Y-75314933D01*
X127595405Y-75521053D01*
X127684112Y-75780144D01*
X127807160Y-76024799D01*
X127809586Y-76028328D01*
X127809589Y-76028334D01*
X127894501Y-76151880D01*
X127962274Y-76250490D01*
X128146582Y-76453043D01*
X128356675Y-76628707D01*
X128360316Y-76630991D01*
X128585024Y-76771951D01*
X128585028Y-76771953D01*
X128588664Y-76774234D01*
X128713460Y-76830582D01*
X128834345Y-76885164D01*
X128834349Y-76885166D01*
X128838257Y-76886930D01*
X128842377Y-76888150D01*
X128842376Y-76888150D01*
X129096723Y-76963491D01*
X129096727Y-76963492D01*
X129100836Y-76964709D01*
X129105070Y-76965357D01*
X129105075Y-76965358D01*
X129367298Y-77005483D01*
X129367300Y-77005483D01*
X129371540Y-77006132D01*
X129510912Y-77008322D01*
X129641071Y-77010367D01*
X129641077Y-77010367D01*
X129645362Y-77010434D01*
X129917235Y-76977534D01*
X130182127Y-76908041D01*
X130280001Y-76867500D01*
X130350590Y-76859911D01*
X130381560Y-76869758D01*
X130404874Y-76880654D01*
X130408769Y-76882558D01*
X130473808Y-76915769D01*
X130480916Y-76917508D01*
X130486559Y-76919607D01*
X130492322Y-76921524D01*
X130498950Y-76924622D01*
X130506112Y-76926112D01*
X130506113Y-76926112D01*
X130570412Y-76939486D01*
X130574696Y-76940456D01*
X130645610Y-76957808D01*
X130651212Y-76958156D01*
X130651215Y-76958156D01*
X130656764Y-76958500D01*
X130656762Y-76958536D01*
X130660755Y-76958775D01*
X130664947Y-76959149D01*
X130672115Y-76960640D01*
X130749520Y-76958546D01*
X130752928Y-76958500D01*
X147252930Y-76958500D01*
X147271880Y-76959933D01*
X147286115Y-76962099D01*
X147286119Y-76962099D01*
X147293349Y-76963199D01*
X147300641Y-76962606D01*
X147300644Y-76962606D01*
X147346018Y-76958915D01*
X147356233Y-76958500D01*
X157412930Y-76958500D01*
X157431880Y-76959933D01*
X157446115Y-76962099D01*
X157446119Y-76962099D01*
X157453349Y-76963199D01*
X157460641Y-76962606D01*
X157460644Y-76962606D01*
X157506018Y-76958915D01*
X157516233Y-76958500D01*
X157524293Y-76958500D01*
X157541680Y-76956473D01*
X157552507Y-76955211D01*
X157556882Y-76954778D01*
X157622339Y-76949454D01*
X157622342Y-76949453D01*
X157629637Y-76948860D01*
X157636601Y-76946604D01*
X157642560Y-76945413D01*
X157648415Y-76944029D01*
X157655681Y-76943182D01*
X157724327Y-76918265D01*
X157728455Y-76916848D01*
X157790936Y-76896607D01*
X157790938Y-76896606D01*
X157797899Y-76894351D01*
X157804154Y-76890555D01*
X157809628Y-76888049D01*
X157815058Y-76885330D01*
X157821937Y-76882833D01*
X157882976Y-76842814D01*
X157886680Y-76840477D01*
X157949107Y-76802595D01*
X157957484Y-76795197D01*
X157957508Y-76795224D01*
X157960500Y-76792571D01*
X157963733Y-76789868D01*
X157969852Y-76785856D01*
X158023128Y-76729617D01*
X158025506Y-76727175D01*
X161778911Y-72973770D01*
X161793323Y-72961384D01*
X161804918Y-72952851D01*
X161804923Y-72952846D01*
X161810818Y-72948508D01*
X161815557Y-72942930D01*
X161815560Y-72942927D01*
X161845035Y-72908232D01*
X161851965Y-72900716D01*
X161857661Y-72895020D01*
X161859924Y-72892159D01*
X161859929Y-72892154D01*
X161875293Y-72872734D01*
X161878082Y-72869333D01*
X161887458Y-72858297D01*
X161925333Y-72813715D01*
X161928659Y-72807202D01*
X161932020Y-72802163D01*
X161935196Y-72797021D01*
X161939734Y-72791284D01*
X161970655Y-72725125D01*
X161972561Y-72721225D01*
X161997936Y-72671531D01*
X162005769Y-72656192D01*
X162007508Y-72649083D01*
X162009604Y-72643449D01*
X162011523Y-72637679D01*
X162014622Y-72631050D01*
X162018999Y-72610010D01*
X162029490Y-72559571D01*
X162030461Y-72555282D01*
X162033829Y-72541517D01*
X162047808Y-72484390D01*
X162048500Y-72473236D01*
X162048535Y-72473238D01*
X162048775Y-72469266D01*
X162049152Y-72465045D01*
X162050641Y-72457885D01*
X162050250Y-72443431D01*
X162068403Y-72374795D01*
X162120781Y-72326868D01*
X162190756Y-72314867D01*
X162213457Y-72319658D01*
X162351180Y-72362290D01*
X162357305Y-72362934D01*
X162357306Y-72362934D01*
X162546622Y-72382832D01*
X162546623Y-72382832D01*
X162552750Y-72383476D01*
X162648135Y-72374795D01*
X162748457Y-72365665D01*
X162748460Y-72365664D01*
X162754596Y-72365106D01*
X162760502Y-72363368D01*
X162760506Y-72363367D01*
X162919503Y-72316571D01*
X162949029Y-72307881D01*
X162954486Y-72305028D01*
X162954489Y-72305027D01*
X163038837Y-72260931D01*
X163128645Y-72213981D01*
X163286601Y-72086981D01*
X163416881Y-71931719D01*
X163416948Y-71931775D01*
X163470045Y-71888409D01*
X163519024Y-71878500D01*
X167572930Y-71878500D01*
X167591880Y-71879933D01*
X167606115Y-71882099D01*
X167606119Y-71882099D01*
X167613349Y-71883199D01*
X167620641Y-71882606D01*
X167620644Y-71882606D01*
X167666018Y-71878915D01*
X167676233Y-71878500D01*
X167684293Y-71878500D01*
X167697583Y-71876951D01*
X167712507Y-71875211D01*
X167716882Y-71874778D01*
X167782339Y-71869454D01*
X167782342Y-71869453D01*
X167789637Y-71868860D01*
X167796601Y-71866604D01*
X167802560Y-71865413D01*
X167808415Y-71864029D01*
X167815681Y-71863182D01*
X167884327Y-71838265D01*
X167888455Y-71836848D01*
X167950936Y-71816607D01*
X167950938Y-71816606D01*
X167957899Y-71814351D01*
X167964154Y-71810555D01*
X167969628Y-71808049D01*
X167975058Y-71805330D01*
X167981937Y-71802833D01*
X167988058Y-71798820D01*
X168042976Y-71762814D01*
X168046680Y-71760477D01*
X168109107Y-71722595D01*
X168117484Y-71715197D01*
X168117508Y-71715224D01*
X168120500Y-71712571D01*
X168123733Y-71709868D01*
X168129852Y-71705856D01*
X168183128Y-71649617D01*
X168185506Y-71647175D01*
X170009316Y-69823365D01*
X170071628Y-69789339D01*
X170109392Y-69786939D01*
X170174524Y-69792637D01*
X170174525Y-69792637D01*
X170180000Y-69793116D01*
X170390655Y-69774686D01*
X170395968Y-69773262D01*
X170395970Y-69773262D01*
X170589600Y-69721379D01*
X170589602Y-69721378D01*
X170594910Y-69719956D01*
X170664654Y-69687434D01*
X170781577Y-69632912D01*
X170781580Y-69632910D01*
X170786558Y-69630589D01*
X170959776Y-69509301D01*
X171109301Y-69359776D01*
X171230589Y-69186558D01*
X171236086Y-69174771D01*
X171317633Y-68999892D01*
X171317634Y-68999891D01*
X171319956Y-68994910D01*
X171350857Y-68879588D01*
X171373262Y-68795970D01*
X171373262Y-68795968D01*
X171374686Y-68790655D01*
X171393116Y-68580000D01*
X171374686Y-68369345D01*
X171371498Y-68357447D01*
X171321379Y-68170400D01*
X171321378Y-68170398D01*
X171319956Y-68165090D01*
X171305138Y-68133312D01*
X171232912Y-67978423D01*
X171232910Y-67978420D01*
X171230589Y-67973442D01*
X171109301Y-67800224D01*
X170959776Y-67650699D01*
X170786558Y-67529411D01*
X170781580Y-67527090D01*
X170781577Y-67527088D01*
X170599892Y-67442367D01*
X170599891Y-67442366D01*
X170594910Y-67440044D01*
X170589602Y-67438622D01*
X170589600Y-67438621D01*
X170395970Y-67386738D01*
X170395968Y-67386738D01*
X170390655Y-67385314D01*
X170180000Y-67366884D01*
X169969345Y-67385314D01*
X169964032Y-67386738D01*
X169964030Y-67386738D01*
X169770400Y-67438621D01*
X169770398Y-67438622D01*
X169765090Y-67440044D01*
X169760109Y-67442366D01*
X169760108Y-67442367D01*
X169578423Y-67527088D01*
X169578420Y-67527090D01*
X169573442Y-67529411D01*
X169400224Y-67650699D01*
X169250699Y-67800224D01*
X169129411Y-67973442D01*
X169127090Y-67978420D01*
X169127088Y-67978423D01*
X169054862Y-68133312D01*
X169040044Y-68165090D01*
X169038622Y-68170398D01*
X169038621Y-68170400D01*
X168988502Y-68357447D01*
X168985314Y-68369345D01*
X168966884Y-68580000D01*
X168967363Y-68585475D01*
X168967363Y-68585476D01*
X168973061Y-68650608D01*
X168959071Y-68720213D01*
X168936635Y-68750684D01*
X167362724Y-70324595D01*
X167300412Y-70358621D01*
X167273629Y-70361500D01*
X163518420Y-70361500D01*
X163450299Y-70341498D01*
X163420777Y-70315136D01*
X163346857Y-70224502D01*
X163319303Y-70159071D01*
X163318500Y-70144866D01*
X163318500Y-69937070D01*
X163319933Y-69918120D01*
X163322099Y-69903885D01*
X163322099Y-69903881D01*
X163323199Y-69896651D01*
X163321732Y-69878608D01*
X163318915Y-69843982D01*
X163318500Y-69833767D01*
X163318500Y-69825707D01*
X163315209Y-69797480D01*
X163314778Y-69793121D01*
X163314471Y-69789339D01*
X163308860Y-69720364D01*
X163306604Y-69713400D01*
X163305417Y-69707461D01*
X163304030Y-69701590D01*
X163303182Y-69694319D01*
X163300686Y-69687443D01*
X163300684Y-69687434D01*
X163278275Y-69625702D01*
X163276865Y-69621598D01*
X163254352Y-69552101D01*
X163250556Y-69545846D01*
X163248057Y-69540387D01*
X163245329Y-69534939D01*
X163242833Y-69528063D01*
X163202805Y-69467010D01*
X163200481Y-69463327D01*
X163165500Y-69405680D01*
X163165499Y-69405679D01*
X163162595Y-69400893D01*
X163155198Y-69392517D01*
X163155225Y-69392493D01*
X163152570Y-69389499D01*
X163149868Y-69386268D01*
X163145856Y-69380148D01*
X163089617Y-69326872D01*
X163087175Y-69324494D01*
X155503770Y-61741089D01*
X155491384Y-61726677D01*
X155482851Y-61715082D01*
X155482846Y-61715077D01*
X155478508Y-61709182D01*
X155472930Y-61704443D01*
X155472927Y-61704440D01*
X155438232Y-61674965D01*
X155430716Y-61668035D01*
X155425021Y-61662340D01*
X155408511Y-61649278D01*
X155402749Y-61644719D01*
X155399345Y-61641928D01*
X155349297Y-61599409D01*
X155349295Y-61599408D01*
X155343715Y-61594667D01*
X155337199Y-61591339D01*
X155332150Y-61587972D01*
X155327021Y-61584805D01*
X155321284Y-61580266D01*
X155255125Y-61549345D01*
X155251225Y-61547439D01*
X155186192Y-61514231D01*
X155179084Y-61512492D01*
X155173441Y-61510393D01*
X155167678Y-61508476D01*
X155161050Y-61505378D01*
X155089583Y-61490513D01*
X155085299Y-61489543D01*
X155014390Y-61472192D01*
X155008788Y-61471844D01*
X155008785Y-61471844D01*
X155003236Y-61471500D01*
X155003238Y-61471464D01*
X154999245Y-61471225D01*
X154995053Y-61470851D01*
X154987885Y-61469360D01*
X154921675Y-61471151D01*
X154910479Y-61471454D01*
X154907072Y-61471500D01*
X153265371Y-61471500D01*
X153197250Y-61451498D01*
X153150757Y-61397842D01*
X153140653Y-61327568D01*
X153170147Y-61262988D01*
X153176276Y-61256405D01*
X154421162Y-60011519D01*
X154483474Y-59977493D01*
X154539669Y-59978095D01*
X154603340Y-59993381D01*
X154682784Y-60012454D01*
X154682790Y-60012455D01*
X154687597Y-60013609D01*
X154940000Y-60033474D01*
X155192403Y-60013609D01*
X155197210Y-60012455D01*
X155197216Y-60012454D01*
X155371487Y-59970615D01*
X155438591Y-59954505D01*
X155458989Y-59946056D01*
X155667928Y-59859511D01*
X155667932Y-59859509D01*
X155672502Y-59857616D01*
X155888376Y-59725328D01*
X156080898Y-59560898D01*
X156245328Y-59368376D01*
X156377616Y-59152502D01*
X156466119Y-58938838D01*
X156472611Y-58923164D01*
X156472612Y-58923162D01*
X156474505Y-58918591D01*
X156533609Y-58672403D01*
X156553474Y-58420000D01*
X156533609Y-58167597D01*
X156474505Y-57921409D01*
X156377616Y-57687498D01*
X156245328Y-57471624D01*
X156080898Y-57279102D01*
X155888376Y-57114672D01*
X155672502Y-56982384D01*
X155667932Y-56980491D01*
X155667928Y-56980489D01*
X155443164Y-56887389D01*
X155443162Y-56887388D01*
X155438591Y-56885495D01*
X155353968Y-56865179D01*
X155197216Y-56827546D01*
X155197210Y-56827545D01*
X155192403Y-56826391D01*
X154940000Y-56806526D01*
X154687597Y-56826391D01*
X154682790Y-56827545D01*
X154682784Y-56827546D01*
X154526032Y-56865179D01*
X154441409Y-56885495D01*
X154436838Y-56887388D01*
X154436836Y-56887389D01*
X154212072Y-56980489D01*
X154212068Y-56980491D01*
X154207498Y-56982384D01*
X153991624Y-57114672D01*
X153799102Y-57279102D01*
X153634672Y-57471624D01*
X153502384Y-57687498D01*
X153405495Y-57921409D01*
X153346391Y-58167597D01*
X153326526Y-58420000D01*
X153346391Y-58672403D01*
X153347545Y-58677210D01*
X153347546Y-58677216D01*
X153381905Y-58820329D01*
X153378358Y-58891237D01*
X153348481Y-58938838D01*
X152122724Y-60164595D01*
X152060412Y-60198621D01*
X152033629Y-60201500D01*
X148294825Y-60201500D01*
X148226704Y-60181498D01*
X148213834Y-60172021D01*
X148136443Y-60107082D01*
X148136437Y-60107078D01*
X148131719Y-60103119D01*
X148126327Y-60100155D01*
X148126323Y-60100152D01*
X147959506Y-60008444D01*
X147954109Y-60005477D01*
X147760916Y-59944193D01*
X147754799Y-59943507D01*
X147754795Y-59943506D01*
X147680652Y-59935190D01*
X147603183Y-59926500D01*
X147411371Y-59926500D01*
X147343250Y-59906498D01*
X147322276Y-59889595D01*
X141844020Y-54411339D01*
X145989673Y-54411339D01*
X146002213Y-54672408D01*
X146053204Y-54928756D01*
X146141526Y-55174752D01*
X146143742Y-55178876D01*
X146208253Y-55298937D01*
X146265237Y-55404991D01*
X146268032Y-55408734D01*
X146268034Y-55408737D01*
X146418830Y-55610677D01*
X146418835Y-55610683D01*
X146421622Y-55614415D01*
X146424931Y-55617695D01*
X146424936Y-55617701D01*
X146603926Y-55795135D01*
X146607243Y-55798423D01*
X146611005Y-55801181D01*
X146611008Y-55801184D01*
X146808236Y-55945797D01*
X146818024Y-55952974D01*
X146822167Y-55955154D01*
X146822169Y-55955155D01*
X147045184Y-56072489D01*
X147045189Y-56072491D01*
X147049334Y-56074672D01*
X147296090Y-56160844D01*
X147300683Y-56161716D01*
X147548285Y-56208724D01*
X147548288Y-56208724D01*
X147552874Y-56209595D01*
X147683459Y-56214726D01*
X147809375Y-56219674D01*
X147809381Y-56219674D01*
X147814043Y-56219857D01*
X147903151Y-56210098D01*
X148069207Y-56191912D01*
X148069212Y-56191911D01*
X148073860Y-56191402D01*
X148186616Y-56161716D01*
X148322094Y-56126048D01*
X148322096Y-56126047D01*
X148326617Y-56124857D01*
X148566762Y-56021682D01*
X148789019Y-55884146D01*
X148792582Y-55881129D01*
X148792587Y-55881126D01*
X148984939Y-55718287D01*
X148984940Y-55718286D01*
X148988505Y-55715268D01*
X149080229Y-55610677D01*
X149157757Y-55522274D01*
X149157761Y-55522269D01*
X149160839Y-55518759D01*
X149302233Y-55298937D01*
X149409583Y-55060629D01*
X149480530Y-54809072D01*
X149497332Y-54676996D01*
X149513116Y-54552921D01*
X149513116Y-54552917D01*
X149513514Y-54549791D01*
X149515931Y-54457500D01*
X149496561Y-54196848D01*
X149485225Y-54146748D01*
X149439908Y-53946480D01*
X149438877Y-53941923D01*
X149344147Y-53698323D01*
X149214451Y-53471402D01*
X149052638Y-53266143D01*
X148862263Y-53087057D01*
X148647509Y-52938076D01*
X148643316Y-52936008D01*
X148417281Y-52824540D01*
X148417278Y-52824539D01*
X148413093Y-52822475D01*
X148366949Y-52807704D01*
X148168623Y-52744220D01*
X148164165Y-52742793D01*
X147906193Y-52700779D01*
X147792442Y-52699290D01*
X147649522Y-52697419D01*
X147649519Y-52697419D01*
X147644845Y-52697358D01*
X147385862Y-52732604D01*
X147134933Y-52805743D01*
X147130680Y-52807703D01*
X147130679Y-52807704D01*
X147094159Y-52824540D01*
X146897572Y-52915168D01*
X146858567Y-52940741D01*
X146682904Y-53055910D01*
X146682899Y-53055914D01*
X146678991Y-53058476D01*
X146483994Y-53232518D01*
X146316863Y-53433470D01*
X146181271Y-53656919D01*
X146080197Y-53897955D01*
X146015859Y-54151283D01*
X145989673Y-54411339D01*
X141844020Y-54411339D01*
X134344020Y-46911339D01*
X142489673Y-46911339D01*
X142502213Y-47172408D01*
X142553204Y-47428756D01*
X142641526Y-47674752D01*
X142643742Y-47678876D01*
X142708253Y-47798937D01*
X142765237Y-47904991D01*
X142768032Y-47908734D01*
X142768034Y-47908737D01*
X142918830Y-48110677D01*
X142918835Y-48110683D01*
X142921622Y-48114415D01*
X142924931Y-48117695D01*
X142924936Y-48117701D01*
X143103926Y-48295135D01*
X143107243Y-48298423D01*
X143111005Y-48301181D01*
X143111008Y-48301184D01*
X143314250Y-48450207D01*
X143318024Y-48452974D01*
X143322167Y-48455154D01*
X143322169Y-48455155D01*
X143545184Y-48572489D01*
X143545189Y-48572491D01*
X143549334Y-48574672D01*
X143796090Y-48660844D01*
X143800683Y-48661716D01*
X144048285Y-48708724D01*
X144048288Y-48708724D01*
X144052874Y-48709595D01*
X144183459Y-48714726D01*
X144309375Y-48719674D01*
X144309381Y-48719674D01*
X144314043Y-48719857D01*
X144393477Y-48711157D01*
X144569207Y-48691912D01*
X144569212Y-48691911D01*
X144573860Y-48691402D01*
X144686616Y-48661716D01*
X144822094Y-48626048D01*
X144822096Y-48626047D01*
X144826617Y-48624857D01*
X145066762Y-48521682D01*
X145289019Y-48384146D01*
X145292582Y-48381129D01*
X145292587Y-48381126D01*
X145484939Y-48218287D01*
X145484940Y-48218286D01*
X145488505Y-48215268D01*
X145580229Y-48110677D01*
X145657757Y-48022274D01*
X145657761Y-48022269D01*
X145660839Y-48018759D01*
X145802233Y-47798937D01*
X145909583Y-47560629D01*
X145980530Y-47309072D01*
X145997332Y-47176996D01*
X146013116Y-47052921D01*
X146013116Y-47052917D01*
X146013514Y-47049791D01*
X146015931Y-46957500D01*
X145996561Y-46696848D01*
X145985225Y-46646748D01*
X145939908Y-46446480D01*
X145938877Y-46441923D01*
X145911771Y-46372219D01*
X145845840Y-46202676D01*
X145845839Y-46202673D01*
X145844147Y-46198323D01*
X145714451Y-45971402D01*
X145552638Y-45766143D01*
X145362263Y-45587057D01*
X145147509Y-45438076D01*
X145143316Y-45436008D01*
X144917281Y-45324540D01*
X144917278Y-45324539D01*
X144913093Y-45322475D01*
X144866949Y-45307704D01*
X144668623Y-45244220D01*
X144664165Y-45242793D01*
X144406193Y-45200779D01*
X144292442Y-45199290D01*
X144149522Y-45197419D01*
X144149519Y-45197419D01*
X144144845Y-45197358D01*
X143885862Y-45232604D01*
X143634933Y-45305743D01*
X143630680Y-45307703D01*
X143630679Y-45307704D01*
X143594159Y-45324540D01*
X143397572Y-45415168D01*
X143358567Y-45440741D01*
X143182904Y-45555910D01*
X143182899Y-45555914D01*
X143178991Y-45558476D01*
X142983994Y-45732518D01*
X142816863Y-45933470D01*
X142681271Y-46156919D01*
X142580197Y-46397955D01*
X142515859Y-46651283D01*
X142489673Y-46911339D01*
X134344020Y-46911339D01*
X133901270Y-46468589D01*
X133888884Y-46454177D01*
X133880351Y-46442582D01*
X133880346Y-46442577D01*
X133876008Y-46436682D01*
X133870430Y-46431943D01*
X133870427Y-46431940D01*
X133835732Y-46402465D01*
X133828216Y-46395535D01*
X133822521Y-46389840D01*
X133816380Y-46384982D01*
X133800249Y-46372219D01*
X133796845Y-46369428D01*
X133746797Y-46326909D01*
X133746795Y-46326908D01*
X133741215Y-46322167D01*
X133734699Y-46318839D01*
X133729650Y-46315472D01*
X133724521Y-46312305D01*
X133718784Y-46307766D01*
X133652625Y-46276845D01*
X133648725Y-46274939D01*
X133583692Y-46241731D01*
X133576584Y-46239992D01*
X133570941Y-46237893D01*
X133565178Y-46235976D01*
X133558550Y-46232878D01*
X133487083Y-46218013D01*
X133482799Y-46217043D01*
X133411890Y-46199692D01*
X133406288Y-46199344D01*
X133406285Y-46199344D01*
X133400736Y-46199000D01*
X133400738Y-46198964D01*
X133396745Y-46198725D01*
X133392553Y-46198351D01*
X133385385Y-46196860D01*
X133331305Y-46198323D01*
X133307979Y-46198954D01*
X133304572Y-46199000D01*
X128417647Y-46199000D01*
X128349526Y-46178998D01*
X128308254Y-46135523D01*
X128216770Y-45975460D01*
X128214451Y-45971402D01*
X128052638Y-45766143D01*
X127862263Y-45587057D01*
X127647509Y-45438076D01*
X127643316Y-45436008D01*
X127417281Y-45324540D01*
X127417278Y-45324539D01*
X127413093Y-45322475D01*
X127366949Y-45307704D01*
X127168623Y-45244220D01*
X127164165Y-45242793D01*
X126906193Y-45200779D01*
X126792442Y-45199290D01*
X126649522Y-45197419D01*
X126649519Y-45197419D01*
X126644845Y-45197358D01*
X126385862Y-45232604D01*
X126134933Y-45305743D01*
X126130680Y-45307703D01*
X126130679Y-45307704D01*
X126094159Y-45324540D01*
X125897572Y-45415168D01*
X125858567Y-45440741D01*
X125682904Y-45555910D01*
X125682899Y-45555914D01*
X125678991Y-45558476D01*
X125483994Y-45732518D01*
X125316863Y-45933470D01*
X125181271Y-46156919D01*
X125080197Y-46397955D01*
X125015859Y-46651283D01*
X124989673Y-46911339D01*
X125002213Y-47172408D01*
X125053204Y-47428756D01*
X125141526Y-47674752D01*
X125143742Y-47678876D01*
X125208253Y-47798937D01*
X125265237Y-47904991D01*
X125268032Y-47908734D01*
X125268034Y-47908737D01*
X125418830Y-48110677D01*
X125418835Y-48110683D01*
X125421622Y-48114415D01*
X125424931Y-48117695D01*
X125424936Y-48117701D01*
X125603926Y-48295135D01*
X125607243Y-48298423D01*
X125611005Y-48301181D01*
X125611008Y-48301184D01*
X125814250Y-48450207D01*
X125818024Y-48452974D01*
X125822167Y-48455154D01*
X125822169Y-48455155D01*
X126045184Y-48572489D01*
X126045189Y-48572491D01*
X126049334Y-48574672D01*
X126296090Y-48660844D01*
X126300683Y-48661716D01*
X126548285Y-48708724D01*
X126548288Y-48708724D01*
X126552874Y-48709595D01*
X126683459Y-48714726D01*
X126809375Y-48719674D01*
X126809381Y-48719674D01*
X126814043Y-48719857D01*
X126893477Y-48711157D01*
X127069207Y-48691912D01*
X127069212Y-48691911D01*
X127073860Y-48691402D01*
X127186616Y-48661716D01*
X127322094Y-48626048D01*
X127322096Y-48626047D01*
X127326617Y-48624857D01*
X127566762Y-48521682D01*
X127789019Y-48384146D01*
X127792582Y-48381129D01*
X127792587Y-48381126D01*
X127984939Y-48218287D01*
X127984940Y-48218286D01*
X127988505Y-48215268D01*
X128080229Y-48110677D01*
X128157757Y-48022274D01*
X128157761Y-48022269D01*
X128160839Y-48018759D01*
X128163369Y-48014826D01*
X128299708Y-47802863D01*
X128299710Y-47802860D01*
X128302233Y-47798937D01*
X128306146Y-47790251D01*
X128352359Y-47736356D01*
X128421028Y-47716000D01*
X132951129Y-47716000D01*
X133019250Y-47736002D01*
X133040224Y-47752905D01*
X146031484Y-60744165D01*
X146065510Y-60806477D01*
X146067699Y-60846430D01*
X146056524Y-60952750D01*
X146074894Y-61154596D01*
X146132119Y-61349029D01*
X146134972Y-61354486D01*
X146134973Y-61354489D01*
X146179069Y-61438837D01*
X146225923Y-61528460D01*
X146225923Y-61528462D01*
X146226019Y-61528645D01*
X146225984Y-61528663D01*
X146245889Y-61594441D01*
X146230729Y-61655409D01*
X146137644Y-61827565D01*
X146077710Y-62021180D01*
X146056524Y-62222750D01*
X146057083Y-62228890D01*
X146069231Y-62362367D01*
X146074894Y-62424596D01*
X146076632Y-62430502D01*
X146076633Y-62430506D01*
X146130380Y-62613121D01*
X146130788Y-62614507D01*
X146132119Y-62619029D01*
X146131260Y-62619282D01*
X146137714Y-62684662D01*
X146124548Y-62721406D01*
X146119385Y-62728295D01*
X146068255Y-62864684D01*
X146061500Y-62926866D01*
X146061500Y-63633629D01*
X146041498Y-63701750D01*
X146024595Y-63722724D01*
X145702724Y-64044595D01*
X145640412Y-64078621D01*
X145613629Y-64081500D01*
X128945557Y-64081500D01*
X128877436Y-64061498D01*
X128833591Y-64013290D01*
X128723978Y-63800919D01*
X128723978Y-63800918D01*
X128722013Y-63797112D01*
X128709380Y-63779136D01*
X128620833Y-63653147D01*
X128564545Y-63573057D01*
X128433574Y-63432115D01*
X128381046Y-63375588D01*
X128381043Y-63375585D01*
X128378125Y-63372445D01*
X128374810Y-63369731D01*
X128374806Y-63369728D01*
X128200781Y-63227290D01*
X128166205Y-63198990D01*
X128163095Y-63197084D01*
X128119251Y-63141439D01*
X128112436Y-63070771D01*
X128144909Y-63007636D01*
X128206360Y-62972080D01*
X128236181Y-62968500D01*
X128548134Y-62968500D01*
X128610316Y-62961745D01*
X128746705Y-62910615D01*
X128863261Y-62823261D01*
X128950615Y-62706705D01*
X129001745Y-62570316D01*
X129008500Y-62508134D01*
X129008500Y-59411866D01*
X129001745Y-59349684D01*
X128950615Y-59213295D01*
X128863261Y-59096739D01*
X128746705Y-59009385D01*
X128610316Y-58958255D01*
X128548134Y-58951500D01*
X127884500Y-58951500D01*
X127816379Y-58931498D01*
X127769886Y-58877842D01*
X127758500Y-58825500D01*
X127758500Y-56342000D01*
X127778502Y-56273879D01*
X127832158Y-56227386D01*
X127884500Y-56216000D01*
X128050634Y-56216000D01*
X128112816Y-56209245D01*
X128249205Y-56158115D01*
X128365761Y-56070761D01*
X128453115Y-55954205D01*
X128504245Y-55817816D01*
X128511000Y-55755634D01*
X128511000Y-53159366D01*
X128504245Y-53097184D01*
X128453115Y-52960795D01*
X128365761Y-52844239D01*
X128249205Y-52756885D01*
X128112816Y-52705755D01*
X128050634Y-52699000D01*
X125454366Y-52699000D01*
X125392184Y-52705755D01*
X125255795Y-52756885D01*
X125139239Y-52844239D01*
X125051885Y-52960795D01*
X125000755Y-53097184D01*
X124994000Y-53159366D01*
X124994000Y-55755634D01*
X125000755Y-55817816D01*
X125051885Y-55954205D01*
X125139239Y-56070761D01*
X125255795Y-56158115D01*
X125392184Y-56209245D01*
X125454366Y-56216000D01*
X126115500Y-56216000D01*
X126183621Y-56236002D01*
X126230114Y-56289658D01*
X126241500Y-56342000D01*
X126241500Y-58825500D01*
X126221498Y-58893621D01*
X126167842Y-58940114D01*
X126115500Y-58951500D01*
X125451866Y-58951500D01*
X125389684Y-58958255D01*
X125253295Y-59009385D01*
X125136739Y-59096739D01*
X125049385Y-59213295D01*
X124998255Y-59349684D01*
X124991500Y-59411866D01*
X124991500Y-61843629D01*
X124971498Y-61911750D01*
X124954595Y-61932724D01*
X123971089Y-62916230D01*
X123956677Y-62928616D01*
X123945082Y-62937149D01*
X123945077Y-62937154D01*
X123939182Y-62941492D01*
X123934443Y-62947070D01*
X123934440Y-62947073D01*
X123904965Y-62981768D01*
X123898035Y-62989284D01*
X123892340Y-62994979D01*
X123890060Y-62997861D01*
X123874719Y-63017251D01*
X123871928Y-63020655D01*
X123829409Y-63070703D01*
X123824667Y-63076285D01*
X123821339Y-63082801D01*
X123817972Y-63087850D01*
X123814805Y-63092979D01*
X123810266Y-63098716D01*
X123779345Y-63164875D01*
X123777442Y-63168769D01*
X123744231Y-63233808D01*
X123742492Y-63240916D01*
X123740393Y-63246559D01*
X123738476Y-63252322D01*
X123735378Y-63258950D01*
X123733888Y-63266112D01*
X123733888Y-63266113D01*
X123720514Y-63330412D01*
X123719544Y-63334696D01*
X123702192Y-63405610D01*
X123701500Y-63416764D01*
X123701464Y-63416762D01*
X123701225Y-63420755D01*
X123700851Y-63424947D01*
X123699360Y-63432115D01*
X123699558Y-63439432D01*
X123701454Y-63509521D01*
X123701500Y-63512928D01*
X123701500Y-70753629D01*
X123681498Y-70821750D01*
X123664595Y-70842724D01*
X121431089Y-73076230D01*
X121416677Y-73088616D01*
X121405082Y-73097149D01*
X121405077Y-73097154D01*
X121399182Y-73101492D01*
X121394443Y-73107070D01*
X121394440Y-73107073D01*
X121364965Y-73141768D01*
X121358035Y-73149284D01*
X121352340Y-73154979D01*
X121350060Y-73157861D01*
X121334719Y-73177251D01*
X121331928Y-73180655D01*
X121289409Y-73230703D01*
X121284667Y-73236285D01*
X121281339Y-73242801D01*
X121277972Y-73247850D01*
X121274805Y-73252979D01*
X121270266Y-73258716D01*
X121239345Y-73324875D01*
X121237442Y-73328769D01*
X121204231Y-73393808D01*
X121202492Y-73400916D01*
X121200393Y-73406559D01*
X121198476Y-73412322D01*
X121195378Y-73418950D01*
X121193888Y-73426112D01*
X121193888Y-73426113D01*
X121180514Y-73490412D01*
X121179544Y-73494696D01*
X121162192Y-73565610D01*
X121161500Y-73576764D01*
X121161464Y-73576762D01*
X121161225Y-73580755D01*
X121160851Y-73584947D01*
X121159360Y-73592115D01*
X121159558Y-73599432D01*
X121161454Y-73669521D01*
X121161500Y-73672928D01*
X121161500Y-76132930D01*
X121160067Y-76151880D01*
X121156801Y-76173349D01*
X104140000Y-76173349D01*
X104140000Y-33146000D01*
X104160002Y-33077879D01*
X104213658Y-33031386D01*
X104266000Y-33020000D01*
X187834000Y-33020000D01*
X187902121Y-33040002D01*
G37*
%TD.AperFunction*%
M02*
