%TF.GenerationSoftware,KiCad,Pcbnew,(6.0.4)*%
%TF.CreationDate,2022-06-07T17:35:18+05:30*%
%TF.ProjectId,sneka batch,736e656b-6120-4626-9174-63682e6b6963,rev?*%
%TF.SameCoordinates,Original*%
%TF.FileFunction,Copper,L2,Bot*%
%TF.FilePolarity,Positive*%
%FSLAX46Y46*%
G04 Gerber Fmt 4.6, Leading zero omitted, Abs format (unit mm)*
G04 Created by KiCad (PCBNEW (6.0.4)) date 2022-06-07 17:35:18*
%MOMM*%
%LPD*%
G01*
G04 APERTURE LIST*
%TA.AperFunction,ComponentPad*%
%ADD10R,3.000000X3.000000*%
%TD*%
%TA.AperFunction,ComponentPad*%
%ADD11C,3.000000*%
%TD*%
%TA.AperFunction,ComponentPad*%
%ADD12C,1.620000*%
%TD*%
%TA.AperFunction,ComponentPad*%
%ADD13C,1.400000*%
%TD*%
%TA.AperFunction,ComponentPad*%
%ADD14O,1.400000X1.400000*%
%TD*%
%TA.AperFunction,ComponentPad*%
%ADD15R,1.500000X1.050000*%
%TD*%
%TA.AperFunction,ComponentPad*%
%ADD16O,1.500000X1.050000*%
%TD*%
%TA.AperFunction,ComponentPad*%
%ADD17R,1.050000X1.500000*%
%TD*%
%TA.AperFunction,ComponentPad*%
%ADD18O,1.050000X1.500000*%
%TD*%
%TA.AperFunction,ComponentPad*%
%ADD19R,2.500000X2.500000*%
%TD*%
%TA.AperFunction,ComponentPad*%
%ADD20O,2.500000X2.500000*%
%TD*%
%TA.AperFunction,ComponentPad*%
%ADD21R,2.200000X2.200000*%
%TD*%
%TA.AperFunction,ComponentPad*%
%ADD22O,2.200000X2.200000*%
%TD*%
G04 APERTURE END LIST*
D10*
%TO.P,J2,1,Pin_1*%
%TO.N,Net-(D1-Pad1)*%
X127000000Y-60960000D03*
D11*
%TO.P,J2,2,Pin_2*%
%TO.N,Net-(Q1-Pad1)*%
X127000000Y-64840000D03*
%TD*%
D12*
%TO.P,RV1,1,1*%
%TO.N,Net-(J1-Pad2)*%
X147360000Y-73620000D03*
%TO.P,RV1,2,2*%
X149860000Y-71120000D03*
%TO.P,RV1,3,3*%
%TO.N,Net-(Q1-Pad1)*%
X152360000Y-73620000D03*
%TD*%
D13*
%TO.P,R1,1*%
%TO.N,Net-(D1-Pad1)*%
X170180000Y-63500000D03*
D14*
%TO.P,R1,2*%
%TO.N,Net-(Q1-Pad3)*%
X170180000Y-68580000D03*
%TD*%
D15*
%TO.P,Q2,1,E*%
%TO.N,Net-(Q1-Pad1)*%
X147320000Y-63500000D03*
D16*
%TO.P,Q2,2,B*%
%TO.N,Net-(Q1-Pad3)*%
X147320000Y-62230000D03*
%TO.P,Q2,3,C*%
%TO.N,Net-(D1-Pad2)*%
X147320000Y-60960000D03*
%TD*%
D17*
%TO.P,Q1,1,E*%
%TO.N,Net-(Q1-Pad1)*%
X160020000Y-71120000D03*
D18*
%TO.P,Q1,2,B*%
%TO.N,Net-(J1-Pad2)*%
X161290000Y-71120000D03*
%TO.P,Q1,3,C*%
%TO.N,Net-(Q1-Pad3)*%
X162560000Y-71120000D03*
%TD*%
D19*
%TO.P,K1,1*%
%TO.N,Net-(D1-Pad1)*%
X126752500Y-54457500D03*
D20*
%TO.P,K1,3*%
%TO.N,unconnected-(K1-Pad3)*%
X147752500Y-54457500D03*
%TO.P,K1,5*%
%TO.N,unconnected-(K1-Pad5)*%
X144252500Y-46957500D03*
%TO.P,K1,6*%
%TO.N,Net-(D1-Pad2)*%
X126752500Y-46957500D03*
%TD*%
D10*
%TO.P,J1,1,Pin_1*%
%TO.N,Net-(D1-Pad1)*%
X129540000Y-71120000D03*
D11*
%TO.P,J1,2,Pin_2*%
%TO.N,Net-(J1-Pad2)*%
X129540000Y-75000000D03*
%TD*%
D21*
%TO.P,D1,1,K*%
%TO.N,Net-(D1-Pad1)*%
X165100000Y-58420000D03*
D22*
%TO.P,D1,2,A*%
%TO.N,Net-(D1-Pad2)*%
X154940000Y-58420000D03*
%TD*%
%TA.AperFunction,NonConductor*%
G36*
X187902121Y-33040002D02*
G01*
X187948614Y-33093658D01*
X187960000Y-33146000D01*
X187960000Y-88774000D01*
X187939998Y-88842121D01*
X187886342Y-88888614D01*
X187834000Y-88900000D01*
X104266000Y-88900000D01*
X104197879Y-88879998D01*
X104151386Y-88826342D01*
X104140000Y-88774000D01*
X104140000Y-74978918D01*
X127526917Y-74978918D01*
X127542682Y-75252320D01*
X127543507Y-75256525D01*
X127543508Y-75256533D01*
X127554127Y-75310657D01*
X127595405Y-75521053D01*
X127596792Y-75525103D01*
X127596793Y-75525108D01*
X127617605Y-75585895D01*
X127684112Y-75780144D01*
X127807160Y-76024799D01*
X127809586Y-76028328D01*
X127809589Y-76028334D01*
X127959843Y-76246953D01*
X127962274Y-76250490D01*
X128146582Y-76453043D01*
X128356675Y-76628707D01*
X128360316Y-76630991D01*
X128585024Y-76771951D01*
X128585028Y-76771953D01*
X128588664Y-76774234D01*
X128656544Y-76804883D01*
X128834345Y-76885164D01*
X128834349Y-76885166D01*
X128838257Y-76886930D01*
X128842377Y-76888150D01*
X128842376Y-76888150D01*
X129096723Y-76963491D01*
X129096727Y-76963492D01*
X129100836Y-76964709D01*
X129105070Y-76965357D01*
X129105075Y-76965358D01*
X129367298Y-77005483D01*
X129367300Y-77005483D01*
X129371540Y-77006132D01*
X129510912Y-77008322D01*
X129641071Y-77010367D01*
X129641077Y-77010367D01*
X129645362Y-77010434D01*
X129917235Y-76977534D01*
X130182127Y-76908041D01*
X130186087Y-76906401D01*
X130186092Y-76906399D01*
X130308631Y-76855641D01*
X130435136Y-76803241D01*
X130671582Y-76665073D01*
X130887089Y-76496094D01*
X130928809Y-76453043D01*
X131074686Y-76302509D01*
X131077669Y-76299431D01*
X131080202Y-76295983D01*
X131080206Y-76295978D01*
X131237257Y-76082178D01*
X131239795Y-76078723D01*
X131267154Y-76028334D01*
X131368418Y-75841830D01*
X131368419Y-75841828D01*
X131370468Y-75838054D01*
X131467269Y-75581877D01*
X131528407Y-75314933D01*
X131552751Y-75042161D01*
X131553193Y-75000000D01*
X131547876Y-74922006D01*
X131534859Y-74731055D01*
X131534858Y-74731049D01*
X131534567Y-74726778D01*
X131479032Y-74458612D01*
X131387617Y-74200465D01*
X131262013Y-73957112D01*
X131252040Y-73942921D01*
X131107008Y-73736562D01*
X131104545Y-73733057D01*
X130999486Y-73620000D01*
X146036464Y-73620000D01*
X146056571Y-73849830D01*
X146116283Y-74072676D01*
X146118608Y-74077661D01*
X146211458Y-74276781D01*
X146211461Y-74276786D01*
X146213784Y-74281768D01*
X146216941Y-74286276D01*
X146340551Y-74462809D01*
X146346113Y-74470753D01*
X146509247Y-74633887D01*
X146513755Y-74637044D01*
X146513758Y-74637046D01*
X146592630Y-74692272D01*
X146698232Y-74766216D01*
X146703214Y-74768539D01*
X146703219Y-74768542D01*
X146809558Y-74818128D01*
X146907324Y-74863717D01*
X147130170Y-74923429D01*
X147360000Y-74943536D01*
X147589830Y-74923429D01*
X147812676Y-74863717D01*
X147910442Y-74818128D01*
X148016781Y-74768542D01*
X148016786Y-74768539D01*
X148021768Y-74766216D01*
X148127370Y-74692272D01*
X148206242Y-74637046D01*
X148206245Y-74637044D01*
X148210753Y-74633887D01*
X148373887Y-74470753D01*
X148379450Y-74462809D01*
X148503059Y-74286276D01*
X148506216Y-74281768D01*
X148508539Y-74276786D01*
X148508542Y-74276781D01*
X148601392Y-74077661D01*
X148603717Y-74072676D01*
X148663429Y-73849830D01*
X148683536Y-73620000D01*
X151036464Y-73620000D01*
X151056571Y-73849830D01*
X151116283Y-74072676D01*
X151118608Y-74077661D01*
X151211458Y-74276781D01*
X151211461Y-74276786D01*
X151213784Y-74281768D01*
X151216941Y-74286276D01*
X151340551Y-74462809D01*
X151346113Y-74470753D01*
X151509247Y-74633887D01*
X151513755Y-74637044D01*
X151513758Y-74637046D01*
X151592630Y-74692272D01*
X151698232Y-74766216D01*
X151703214Y-74768539D01*
X151703219Y-74768542D01*
X151809558Y-74818128D01*
X151907324Y-74863717D01*
X152130170Y-74923429D01*
X152360000Y-74943536D01*
X152589830Y-74923429D01*
X152812676Y-74863717D01*
X152910442Y-74818128D01*
X153016781Y-74768542D01*
X153016786Y-74768539D01*
X153021768Y-74766216D01*
X153127370Y-74692272D01*
X153206242Y-74637046D01*
X153206245Y-74637044D01*
X153210753Y-74633887D01*
X153373887Y-74470753D01*
X153379450Y-74462809D01*
X153503059Y-74286276D01*
X153506216Y-74281768D01*
X153508539Y-74276786D01*
X153508542Y-74276781D01*
X153601392Y-74077661D01*
X153603717Y-74072676D01*
X153663429Y-73849830D01*
X153683536Y-73620000D01*
X153663429Y-73390170D01*
X153603717Y-73167324D01*
X153556109Y-73065229D01*
X153508542Y-72963219D01*
X153508539Y-72963214D01*
X153506216Y-72958232D01*
X153373887Y-72769247D01*
X153210753Y-72606113D01*
X153206245Y-72602956D01*
X153206242Y-72602954D01*
X153127370Y-72547728D01*
X153021768Y-72473784D01*
X153016786Y-72471461D01*
X153016781Y-72471458D01*
X152828101Y-72383476D01*
X152812676Y-72376283D01*
X152589830Y-72316571D01*
X152360000Y-72296464D01*
X152130170Y-72316571D01*
X151907324Y-72376283D01*
X151891899Y-72383476D01*
X151703219Y-72471458D01*
X151703214Y-72471461D01*
X151698232Y-72473784D01*
X151592630Y-72547728D01*
X151513758Y-72602954D01*
X151513755Y-72602956D01*
X151509247Y-72606113D01*
X151346113Y-72769247D01*
X151213784Y-72958232D01*
X151211461Y-72963214D01*
X151211458Y-72963219D01*
X151163891Y-73065229D01*
X151116283Y-73167324D01*
X151056571Y-73390170D01*
X151036464Y-73620000D01*
X148683536Y-73620000D01*
X148663429Y-73390170D01*
X148603717Y-73167324D01*
X148556109Y-73065229D01*
X148508542Y-72963219D01*
X148508539Y-72963214D01*
X148506216Y-72958232D01*
X148373887Y-72769247D01*
X148210753Y-72606113D01*
X148206245Y-72602956D01*
X148206242Y-72602954D01*
X148127370Y-72547728D01*
X148021768Y-72473784D01*
X148016786Y-72471461D01*
X148016781Y-72471458D01*
X147828101Y-72383476D01*
X147812676Y-72376283D01*
X147589830Y-72316571D01*
X147360000Y-72296464D01*
X147130170Y-72316571D01*
X146907324Y-72376283D01*
X146891899Y-72383476D01*
X146703219Y-72471458D01*
X146703214Y-72471461D01*
X146698232Y-72473784D01*
X146592630Y-72547728D01*
X146513758Y-72602954D01*
X146513755Y-72602956D01*
X146509247Y-72606113D01*
X146346113Y-72769247D01*
X146213784Y-72958232D01*
X146211461Y-72963214D01*
X146211458Y-72963219D01*
X146163891Y-73065229D01*
X146116283Y-73167324D01*
X146056571Y-73390170D01*
X146036464Y-73620000D01*
X130999486Y-73620000D01*
X130918125Y-73532445D01*
X130914810Y-73529731D01*
X130914806Y-73529728D01*
X130709523Y-73361706D01*
X130706205Y-73358990D01*
X130703095Y-73357084D01*
X130659251Y-73301439D01*
X130652436Y-73230771D01*
X130684909Y-73167636D01*
X130746360Y-73132080D01*
X130776181Y-73128500D01*
X131088134Y-73128500D01*
X131150316Y-73121745D01*
X131286705Y-73070615D01*
X131403261Y-72983261D01*
X131490615Y-72866705D01*
X131541745Y-72730316D01*
X131548500Y-72668134D01*
X131548500Y-71120000D01*
X148536464Y-71120000D01*
X148556571Y-71349830D01*
X148616283Y-71572676D01*
X148618608Y-71577661D01*
X148711458Y-71776781D01*
X148711461Y-71776786D01*
X148713784Y-71781768D01*
X148716941Y-71786276D01*
X148822085Y-71936437D01*
X148846113Y-71970753D01*
X149009247Y-72133887D01*
X149013755Y-72137044D01*
X149013758Y-72137046D01*
X149047738Y-72160839D01*
X149198232Y-72266216D01*
X149203214Y-72268539D01*
X149203219Y-72268542D01*
X149287583Y-72307881D01*
X149407324Y-72363717D01*
X149630170Y-72423429D01*
X149860000Y-72443536D01*
X150089830Y-72423429D01*
X150312676Y-72363717D01*
X150432417Y-72307881D01*
X150516781Y-72268542D01*
X150516786Y-72268539D01*
X150521768Y-72266216D01*
X150672262Y-72160839D01*
X150706242Y-72137046D01*
X150706245Y-72137044D01*
X150710753Y-72133887D01*
X150873887Y-71970753D01*
X150897916Y-71936437D01*
X150910732Y-71918134D01*
X158986500Y-71918134D01*
X158993255Y-71980316D01*
X159044385Y-72116705D01*
X159131739Y-72233261D01*
X159248295Y-72320615D01*
X159384684Y-72371745D01*
X159446866Y-72378500D01*
X160593134Y-72378500D01*
X160655316Y-72371745D01*
X160696623Y-72356260D01*
X160783296Y-72323768D01*
X160783299Y-72323766D01*
X160791705Y-72320615D01*
X160798894Y-72315227D01*
X160799137Y-72315094D01*
X160868494Y-72299924D01*
X160896907Y-72305248D01*
X161081180Y-72362290D01*
X161087305Y-72362934D01*
X161087306Y-72362934D01*
X161276622Y-72382832D01*
X161276623Y-72382832D01*
X161282750Y-72383476D01*
X161377421Y-72374860D01*
X161478457Y-72365665D01*
X161478460Y-72365664D01*
X161484596Y-72365106D01*
X161490502Y-72363368D01*
X161490506Y-72363367D01*
X161649503Y-72316571D01*
X161679029Y-72307881D01*
X161684486Y-72305028D01*
X161684489Y-72305027D01*
X161821765Y-72233261D01*
X161858460Y-72214077D01*
X161858462Y-72214077D01*
X161858645Y-72213981D01*
X161858663Y-72214016D01*
X161924441Y-72194111D01*
X161985409Y-72209271D01*
X162157565Y-72302356D01*
X162226733Y-72323767D01*
X162345293Y-72360468D01*
X162345296Y-72360469D01*
X162351180Y-72362290D01*
X162357305Y-72362934D01*
X162357306Y-72362934D01*
X162546622Y-72382832D01*
X162546623Y-72382832D01*
X162552750Y-72383476D01*
X162647421Y-72374860D01*
X162748457Y-72365665D01*
X162748460Y-72365664D01*
X162754596Y-72365106D01*
X162760502Y-72363368D01*
X162760506Y-72363367D01*
X162919503Y-72316571D01*
X162949029Y-72307881D01*
X162954486Y-72305028D01*
X162954489Y-72305027D01*
X163091765Y-72233261D01*
X163128645Y-72213981D01*
X163286601Y-72086981D01*
X163416881Y-71931719D01*
X163419845Y-71926327D01*
X163419848Y-71926323D01*
X163511556Y-71759506D01*
X163514523Y-71754109D01*
X163575807Y-71560916D01*
X163593500Y-71403183D01*
X163593500Y-70843996D01*
X163578723Y-70693287D01*
X163520142Y-70499258D01*
X163424990Y-70320302D01*
X163296890Y-70163237D01*
X163258772Y-70131703D01*
X163145472Y-70037973D01*
X163145469Y-70037971D01*
X163140722Y-70034044D01*
X162962435Y-69937644D01*
X162865628Y-69907677D01*
X162774707Y-69879532D01*
X162774704Y-69879531D01*
X162768820Y-69877710D01*
X162762695Y-69877066D01*
X162762694Y-69877066D01*
X162573378Y-69857168D01*
X162573377Y-69857168D01*
X162567250Y-69856524D01*
X162483986Y-69864102D01*
X162371543Y-69874335D01*
X162371540Y-69874336D01*
X162365404Y-69874894D01*
X162359498Y-69876632D01*
X162359494Y-69876633D01*
X162224947Y-69916233D01*
X162170971Y-69932119D01*
X162165514Y-69934972D01*
X162165511Y-69934973D01*
X162081163Y-69979069D01*
X161991540Y-70025923D01*
X161991538Y-70025923D01*
X161991355Y-70026019D01*
X161991337Y-70025984D01*
X161925559Y-70045889D01*
X161864591Y-70030729D01*
X161855815Y-70025984D01*
X161692435Y-69937644D01*
X161595628Y-69907677D01*
X161504707Y-69879532D01*
X161504704Y-69879531D01*
X161498820Y-69877710D01*
X161492695Y-69877066D01*
X161492694Y-69877066D01*
X161303378Y-69857168D01*
X161303377Y-69857168D01*
X161297250Y-69856524D01*
X161213986Y-69864102D01*
X161101543Y-69874335D01*
X161101540Y-69874336D01*
X161095404Y-69874894D01*
X161089498Y-69876632D01*
X161089494Y-69876633D01*
X160906879Y-69930380D01*
X160906877Y-69930381D01*
X160905493Y-69930788D01*
X160900971Y-69932119D01*
X160900718Y-69931260D01*
X160835338Y-69937714D01*
X160798594Y-69924548D01*
X160791705Y-69919385D01*
X160783304Y-69916236D01*
X160783301Y-69916234D01*
X160685397Y-69879532D01*
X160655316Y-69868255D01*
X160593134Y-69861500D01*
X159446866Y-69861500D01*
X159384684Y-69868255D01*
X159248295Y-69919385D01*
X159131739Y-70006739D01*
X159044385Y-70123295D01*
X158993255Y-70259684D01*
X158986500Y-70321866D01*
X158986500Y-71918134D01*
X150910732Y-71918134D01*
X151003059Y-71786276D01*
X151006216Y-71781768D01*
X151008539Y-71776786D01*
X151008542Y-71776781D01*
X151101392Y-71577661D01*
X151103717Y-71572676D01*
X151163429Y-71349830D01*
X151183536Y-71120000D01*
X151163429Y-70890170D01*
X151103717Y-70667324D01*
X151025347Y-70499258D01*
X151008542Y-70463219D01*
X151008539Y-70463214D01*
X151006216Y-70458232D01*
X150873887Y-70269247D01*
X150710753Y-70106113D01*
X150706245Y-70102956D01*
X150706242Y-70102954D01*
X150592291Y-70023165D01*
X150521768Y-69973784D01*
X150516786Y-69971461D01*
X150516781Y-69971458D01*
X150398349Y-69916233D01*
X150312676Y-69876283D01*
X150089830Y-69816571D01*
X149860000Y-69796464D01*
X149630170Y-69816571D01*
X149407324Y-69876283D01*
X149321651Y-69916233D01*
X149203219Y-69971458D01*
X149203214Y-69971461D01*
X149198232Y-69973784D01*
X149127709Y-70023165D01*
X149013758Y-70102954D01*
X149013755Y-70102956D01*
X149009247Y-70106113D01*
X148846113Y-70269247D01*
X148713784Y-70458232D01*
X148711461Y-70463214D01*
X148711458Y-70463219D01*
X148694653Y-70499258D01*
X148616283Y-70667324D01*
X148556571Y-70890170D01*
X148536464Y-71120000D01*
X131548500Y-71120000D01*
X131548500Y-69571866D01*
X131541745Y-69509684D01*
X131490615Y-69373295D01*
X131403261Y-69256739D01*
X131286705Y-69169385D01*
X131150316Y-69118255D01*
X131088134Y-69111500D01*
X127991866Y-69111500D01*
X127929684Y-69118255D01*
X127793295Y-69169385D01*
X127676739Y-69256739D01*
X127589385Y-69373295D01*
X127538255Y-69509684D01*
X127531500Y-69571866D01*
X127531500Y-72668134D01*
X127538255Y-72730316D01*
X127589385Y-72866705D01*
X127676739Y-72983261D01*
X127793295Y-73070615D01*
X127929684Y-73121745D01*
X127991866Y-73128500D01*
X128304815Y-73128500D01*
X128372936Y-73148502D01*
X128419429Y-73202158D01*
X128429533Y-73272432D01*
X128400039Y-73337012D01*
X128383596Y-73352834D01*
X128177318Y-73518094D01*
X127988808Y-73716742D01*
X127829002Y-73939136D01*
X127700857Y-74181161D01*
X127699385Y-74185184D01*
X127699383Y-74185188D01*
X127662390Y-74286276D01*
X127606743Y-74438337D01*
X127548404Y-74705907D01*
X127526917Y-74978918D01*
X104140000Y-74978918D01*
X104140000Y-68580000D01*
X168966884Y-68580000D01*
X168985314Y-68790655D01*
X169040044Y-68994910D01*
X169042366Y-68999891D01*
X169042367Y-68999892D01*
X169123915Y-69174771D01*
X169129411Y-69186558D01*
X169250699Y-69359776D01*
X169400224Y-69509301D01*
X169573442Y-69630589D01*
X169578420Y-69632910D01*
X169578423Y-69632912D01*
X169760108Y-69717633D01*
X169765090Y-69719956D01*
X169770398Y-69721378D01*
X169770400Y-69721379D01*
X169964030Y-69773262D01*
X169964032Y-69773262D01*
X169969345Y-69774686D01*
X170180000Y-69793116D01*
X170390655Y-69774686D01*
X170395968Y-69773262D01*
X170395970Y-69773262D01*
X170589600Y-69721379D01*
X170589602Y-69721378D01*
X170594910Y-69719956D01*
X170599892Y-69717633D01*
X170781577Y-69632912D01*
X170781580Y-69632910D01*
X170786558Y-69630589D01*
X170959776Y-69509301D01*
X171109301Y-69359776D01*
X171230589Y-69186558D01*
X171236086Y-69174771D01*
X171317633Y-68999892D01*
X171317634Y-68999891D01*
X171319956Y-68994910D01*
X171374686Y-68790655D01*
X171393116Y-68580000D01*
X171374686Y-68369345D01*
X171319956Y-68165090D01*
X171230589Y-67973442D01*
X171109301Y-67800224D01*
X170959776Y-67650699D01*
X170786558Y-67529411D01*
X170781580Y-67527090D01*
X170781577Y-67527088D01*
X170599892Y-67442367D01*
X170599891Y-67442366D01*
X170594910Y-67440044D01*
X170589602Y-67438622D01*
X170589600Y-67438621D01*
X170395970Y-67386738D01*
X170395968Y-67386738D01*
X170390655Y-67385314D01*
X170180000Y-67366884D01*
X169969345Y-67385314D01*
X169964032Y-67386738D01*
X169964030Y-67386738D01*
X169770400Y-67438621D01*
X169770398Y-67438622D01*
X169765090Y-67440044D01*
X169760109Y-67442366D01*
X169760108Y-67442367D01*
X169578423Y-67527088D01*
X169578420Y-67527090D01*
X169573442Y-67529411D01*
X169400224Y-67650699D01*
X169250699Y-67800224D01*
X169129411Y-67973442D01*
X169040044Y-68165090D01*
X168985314Y-68369345D01*
X168966884Y-68580000D01*
X104140000Y-68580000D01*
X104140000Y-64818918D01*
X124986917Y-64818918D01*
X125002682Y-65092320D01*
X125003507Y-65096525D01*
X125003508Y-65096533D01*
X125014127Y-65150657D01*
X125055405Y-65361053D01*
X125056792Y-65365103D01*
X125056793Y-65365108D01*
X125077605Y-65425895D01*
X125144112Y-65620144D01*
X125267160Y-65864799D01*
X125269586Y-65868328D01*
X125269589Y-65868334D01*
X125419843Y-66086953D01*
X125422274Y-66090490D01*
X125606582Y-66293043D01*
X125816675Y-66468707D01*
X125820316Y-66470991D01*
X126045024Y-66611951D01*
X126045028Y-66611953D01*
X126048664Y-66614234D01*
X126116544Y-66644883D01*
X126294345Y-66725164D01*
X126294349Y-66725166D01*
X126298257Y-66726930D01*
X126302377Y-66728150D01*
X126302376Y-66728150D01*
X126556723Y-66803491D01*
X126556727Y-66803492D01*
X126560836Y-66804709D01*
X126565070Y-66805357D01*
X126565075Y-66805358D01*
X126827298Y-66845483D01*
X126827300Y-66845483D01*
X126831540Y-66846132D01*
X126970912Y-66848322D01*
X127101071Y-66850367D01*
X127101077Y-66850367D01*
X127105362Y-66850434D01*
X127377235Y-66817534D01*
X127642127Y-66748041D01*
X127646087Y-66746401D01*
X127646092Y-66746399D01*
X127768631Y-66695641D01*
X127895136Y-66643241D01*
X128131582Y-66505073D01*
X128347089Y-66336094D01*
X128388809Y-66293043D01*
X128534686Y-66142509D01*
X128537669Y-66139431D01*
X128540202Y-66135983D01*
X128540206Y-66135978D01*
X128697257Y-65922178D01*
X128699795Y-65918723D01*
X128727154Y-65868334D01*
X128828418Y-65681830D01*
X128828419Y-65681828D01*
X128830468Y-65678054D01*
X128927269Y-65421877D01*
X128988407Y-65154933D01*
X129012751Y-64882161D01*
X129013193Y-64840000D01*
X129004543Y-64713116D01*
X128994859Y-64571055D01*
X128994858Y-64571049D01*
X128994567Y-64566778D01*
X128991696Y-64552912D01*
X128939901Y-64302809D01*
X128939032Y-64298612D01*
X128847617Y-64040465D01*
X128722013Y-63797112D01*
X128712040Y-63782921D01*
X128567008Y-63576562D01*
X128564545Y-63573057D01*
X128378125Y-63372445D01*
X128374810Y-63369731D01*
X128374806Y-63369728D01*
X128169523Y-63201706D01*
X128166205Y-63198990D01*
X128163095Y-63197084D01*
X128119251Y-63141439D01*
X128112436Y-63070771D01*
X128144909Y-63007636D01*
X128206360Y-62972080D01*
X128236181Y-62968500D01*
X128548134Y-62968500D01*
X128610316Y-62961745D01*
X128746705Y-62910615D01*
X128863261Y-62823261D01*
X128950615Y-62706705D01*
X129001745Y-62570316D01*
X129008500Y-62508134D01*
X129008500Y-62222750D01*
X146056524Y-62222750D01*
X146062361Y-62286884D01*
X146069231Y-62362367D01*
X146074894Y-62424596D01*
X146076632Y-62430502D01*
X146076633Y-62430506D01*
X146130380Y-62613121D01*
X146130788Y-62614507D01*
X146132119Y-62619029D01*
X146131260Y-62619282D01*
X146137714Y-62684662D01*
X146124548Y-62721406D01*
X146119385Y-62728295D01*
X146116236Y-62736696D01*
X146116234Y-62736699D01*
X146086475Y-62816081D01*
X146068255Y-62864684D01*
X146061500Y-62926866D01*
X146061500Y-64073134D01*
X146068255Y-64135316D01*
X146119385Y-64271705D01*
X146206739Y-64388261D01*
X146323295Y-64475615D01*
X146459684Y-64526745D01*
X146521866Y-64533500D01*
X148118134Y-64533500D01*
X148180316Y-64526745D01*
X148316705Y-64475615D01*
X148433261Y-64388261D01*
X148520615Y-64271705D01*
X148571745Y-64135316D01*
X148578500Y-64073134D01*
X148578500Y-63500000D01*
X168966884Y-63500000D01*
X168985314Y-63710655D01*
X168986738Y-63715968D01*
X168986738Y-63715970D01*
X169004678Y-63782921D01*
X169040044Y-63914910D01*
X169042366Y-63919891D01*
X169042367Y-63919892D01*
X169112232Y-64069717D01*
X169129411Y-64106558D01*
X169250699Y-64279776D01*
X169400224Y-64429301D01*
X169573442Y-64550589D01*
X169578420Y-64552910D01*
X169578423Y-64552912D01*
X169608159Y-64566778D01*
X169765090Y-64639956D01*
X169770398Y-64641378D01*
X169770400Y-64641379D01*
X169964030Y-64693262D01*
X169964032Y-64693262D01*
X169969345Y-64694686D01*
X170180000Y-64713116D01*
X170390655Y-64694686D01*
X170395968Y-64693262D01*
X170395970Y-64693262D01*
X170589600Y-64641379D01*
X170589602Y-64641378D01*
X170594910Y-64639956D01*
X170751841Y-64566778D01*
X170781577Y-64552912D01*
X170781580Y-64552910D01*
X170786558Y-64550589D01*
X170959776Y-64429301D01*
X171109301Y-64279776D01*
X171230589Y-64106558D01*
X171247769Y-64069717D01*
X171317633Y-63919892D01*
X171317634Y-63919891D01*
X171319956Y-63914910D01*
X171355323Y-63782921D01*
X171373262Y-63715970D01*
X171373262Y-63715968D01*
X171374686Y-63710655D01*
X171393116Y-63500000D01*
X171374686Y-63289345D01*
X171351203Y-63201706D01*
X171321379Y-63090400D01*
X171321378Y-63090398D01*
X171319956Y-63085090D01*
X171301836Y-63046232D01*
X171232912Y-62898423D01*
X171232910Y-62898420D01*
X171230589Y-62893442D01*
X171109301Y-62720224D01*
X170959776Y-62570699D01*
X170786558Y-62449411D01*
X170781580Y-62447090D01*
X170781577Y-62447088D01*
X170599892Y-62362367D01*
X170599891Y-62362366D01*
X170594910Y-62360044D01*
X170589602Y-62358622D01*
X170589600Y-62358621D01*
X170395970Y-62306738D01*
X170395968Y-62306738D01*
X170390655Y-62305314D01*
X170180000Y-62286884D01*
X169969345Y-62305314D01*
X169964032Y-62306738D01*
X169964030Y-62306738D01*
X169770400Y-62358621D01*
X169770398Y-62358622D01*
X169765090Y-62360044D01*
X169760109Y-62362366D01*
X169760108Y-62362367D01*
X169578423Y-62447088D01*
X169578420Y-62447090D01*
X169573442Y-62449411D01*
X169400224Y-62570699D01*
X169250699Y-62720224D01*
X169129411Y-62893442D01*
X169127090Y-62898420D01*
X169127088Y-62898423D01*
X169058164Y-63046232D01*
X169040044Y-63085090D01*
X169038622Y-63090398D01*
X169038621Y-63090400D01*
X169008797Y-63201706D01*
X168985314Y-63289345D01*
X168966884Y-63500000D01*
X148578500Y-63500000D01*
X148578500Y-62926866D01*
X148571745Y-62864684D01*
X148553525Y-62816081D01*
X148523768Y-62736704D01*
X148523766Y-62736701D01*
X148520615Y-62728295D01*
X148515227Y-62721106D01*
X148515094Y-62720863D01*
X148499924Y-62651506D01*
X148505248Y-62623092D01*
X148506428Y-62619282D01*
X148562290Y-62438820D01*
X148576173Y-62306738D01*
X148582832Y-62243378D01*
X148582832Y-62243377D01*
X148583476Y-62237250D01*
X148565106Y-62035404D01*
X148507881Y-61840971D01*
X148503951Y-61833452D01*
X148416835Y-61666815D01*
X148413981Y-61661355D01*
X148414016Y-61661337D01*
X148394111Y-61595559D01*
X148409271Y-61534591D01*
X148499426Y-61367853D01*
X148502356Y-61362435D01*
X148562290Y-61168820D01*
X148583476Y-60967250D01*
X148565106Y-60765404D01*
X148507881Y-60570971D01*
X148503951Y-60563452D01*
X148416835Y-60396815D01*
X148413981Y-60391355D01*
X148408630Y-60384699D01*
X148290840Y-60238199D01*
X148286981Y-60233399D01*
X148131719Y-60103119D01*
X148126327Y-60100155D01*
X148126323Y-60100152D01*
X147959506Y-60008444D01*
X147954109Y-60005477D01*
X147760916Y-59944193D01*
X147754799Y-59943507D01*
X147754795Y-59943506D01*
X147680652Y-59935190D01*
X147603183Y-59926500D01*
X147043996Y-59926500D01*
X146893287Y-59941277D01*
X146699258Y-59999858D01*
X146520302Y-60095010D01*
X146363237Y-60223110D01*
X146359310Y-60227857D01*
X146359308Y-60227859D01*
X146237973Y-60374528D01*
X146237971Y-60374531D01*
X146234044Y-60379278D01*
X146137644Y-60557565D01*
X146077710Y-60751180D01*
X146056524Y-60952750D01*
X146074894Y-61154596D01*
X146132119Y-61349029D01*
X146134972Y-61354486D01*
X146134973Y-61354489D01*
X146139127Y-61362435D01*
X146225923Y-61528460D01*
X146225923Y-61528462D01*
X146226019Y-61528645D01*
X146225984Y-61528663D01*
X146245889Y-61594441D01*
X146230729Y-61655409D01*
X146137644Y-61827565D01*
X146077710Y-62021180D01*
X146056524Y-62222750D01*
X129008500Y-62222750D01*
X129008500Y-59411866D01*
X129001745Y-59349684D01*
X128950615Y-59213295D01*
X128863261Y-59096739D01*
X128746705Y-59009385D01*
X128610316Y-58958255D01*
X128548134Y-58951500D01*
X125451866Y-58951500D01*
X125389684Y-58958255D01*
X125253295Y-59009385D01*
X125136739Y-59096739D01*
X125049385Y-59213295D01*
X124998255Y-59349684D01*
X124991500Y-59411866D01*
X124991500Y-62508134D01*
X124998255Y-62570316D01*
X125049385Y-62706705D01*
X125136739Y-62823261D01*
X125253295Y-62910615D01*
X125389684Y-62961745D01*
X125451866Y-62968500D01*
X125764815Y-62968500D01*
X125832936Y-62988502D01*
X125879429Y-63042158D01*
X125889533Y-63112432D01*
X125860039Y-63177012D01*
X125843596Y-63192834D01*
X125637318Y-63358094D01*
X125620717Y-63375588D01*
X125497459Y-63505475D01*
X125448808Y-63556742D01*
X125289002Y-63779136D01*
X125160857Y-64021161D01*
X125159385Y-64025184D01*
X125159383Y-64025188D01*
X125119082Y-64135316D01*
X125066743Y-64278337D01*
X125008404Y-64545907D01*
X124986917Y-64818918D01*
X104140000Y-64818918D01*
X104140000Y-58420000D01*
X153326526Y-58420000D01*
X153346391Y-58672403D01*
X153405495Y-58918591D01*
X153502384Y-59152502D01*
X153634672Y-59368376D01*
X153799102Y-59560898D01*
X153991624Y-59725328D01*
X154207498Y-59857616D01*
X154212068Y-59859509D01*
X154212072Y-59859511D01*
X154421011Y-59946056D01*
X154441409Y-59954505D01*
X154508513Y-59970615D01*
X154682784Y-60012454D01*
X154682790Y-60012455D01*
X154687597Y-60013609D01*
X154940000Y-60033474D01*
X155192403Y-60013609D01*
X155197210Y-60012455D01*
X155197216Y-60012454D01*
X155371487Y-59970615D01*
X155438591Y-59954505D01*
X155458989Y-59946056D01*
X155667928Y-59859511D01*
X155667932Y-59859509D01*
X155672502Y-59857616D01*
X155888376Y-59725328D01*
X156072426Y-59568134D01*
X163491500Y-59568134D01*
X163498255Y-59630316D01*
X163549385Y-59766705D01*
X163636739Y-59883261D01*
X163753295Y-59970615D01*
X163889684Y-60021745D01*
X163951866Y-60028500D01*
X166248134Y-60028500D01*
X166310316Y-60021745D01*
X166446705Y-59970615D01*
X166563261Y-59883261D01*
X166650615Y-59766705D01*
X166701745Y-59630316D01*
X166708500Y-59568134D01*
X166708500Y-57271866D01*
X166701745Y-57209684D01*
X166650615Y-57073295D01*
X166563261Y-56956739D01*
X166446705Y-56869385D01*
X166310316Y-56818255D01*
X166248134Y-56811500D01*
X163951866Y-56811500D01*
X163889684Y-56818255D01*
X163753295Y-56869385D01*
X163636739Y-56956739D01*
X163549385Y-57073295D01*
X163498255Y-57209684D01*
X163491500Y-57271866D01*
X163491500Y-59568134D01*
X156072426Y-59568134D01*
X156080898Y-59560898D01*
X156245328Y-59368376D01*
X156377616Y-59152502D01*
X156474505Y-58918591D01*
X156533609Y-58672403D01*
X156553474Y-58420000D01*
X156533609Y-58167597D01*
X156474505Y-57921409D01*
X156377616Y-57687498D01*
X156245328Y-57471624D01*
X156080898Y-57279102D01*
X155888376Y-57114672D01*
X155672502Y-56982384D01*
X155667932Y-56980491D01*
X155667928Y-56980489D01*
X155443164Y-56887389D01*
X155443162Y-56887388D01*
X155438591Y-56885495D01*
X155353968Y-56865179D01*
X155197216Y-56827546D01*
X155197210Y-56827545D01*
X155192403Y-56826391D01*
X154940000Y-56806526D01*
X154687597Y-56826391D01*
X154682790Y-56827545D01*
X154682784Y-56827546D01*
X154526032Y-56865179D01*
X154441409Y-56885495D01*
X154436838Y-56887388D01*
X154436836Y-56887389D01*
X154212072Y-56980489D01*
X154212068Y-56980491D01*
X154207498Y-56982384D01*
X153991624Y-57114672D01*
X153799102Y-57279102D01*
X153634672Y-57471624D01*
X153502384Y-57687498D01*
X153405495Y-57921409D01*
X153346391Y-58167597D01*
X153326526Y-58420000D01*
X104140000Y-58420000D01*
X104140000Y-55755634D01*
X124994000Y-55755634D01*
X125000755Y-55817816D01*
X125051885Y-55954205D01*
X125139239Y-56070761D01*
X125255795Y-56158115D01*
X125392184Y-56209245D01*
X125454366Y-56216000D01*
X128050634Y-56216000D01*
X128112816Y-56209245D01*
X128249205Y-56158115D01*
X128365761Y-56070761D01*
X128453115Y-55954205D01*
X128504245Y-55817816D01*
X128511000Y-55755634D01*
X128511000Y-54411339D01*
X145989673Y-54411339D01*
X146002213Y-54672408D01*
X146053204Y-54928756D01*
X146141526Y-55174752D01*
X146143742Y-55178876D01*
X146208253Y-55298937D01*
X146265237Y-55404991D01*
X146268032Y-55408734D01*
X146268034Y-55408737D01*
X146418830Y-55610677D01*
X146418835Y-55610683D01*
X146421622Y-55614415D01*
X146424931Y-55617695D01*
X146424936Y-55617701D01*
X146603926Y-55795135D01*
X146607243Y-55798423D01*
X146611005Y-55801181D01*
X146611008Y-55801184D01*
X146808236Y-55945797D01*
X146818024Y-55952974D01*
X146822167Y-55955154D01*
X146822169Y-55955155D01*
X147045184Y-56072489D01*
X147045189Y-56072491D01*
X147049334Y-56074672D01*
X147296090Y-56160844D01*
X147300683Y-56161716D01*
X147548285Y-56208724D01*
X147548288Y-56208724D01*
X147552874Y-56209595D01*
X147683459Y-56214726D01*
X147809375Y-56219674D01*
X147809381Y-56219674D01*
X147814043Y-56219857D01*
X147903151Y-56210098D01*
X148069207Y-56191912D01*
X148069212Y-56191911D01*
X148073860Y-56191402D01*
X148186616Y-56161716D01*
X148322094Y-56126048D01*
X148322096Y-56126047D01*
X148326617Y-56124857D01*
X148566762Y-56021682D01*
X148789019Y-55884146D01*
X148792582Y-55881129D01*
X148792587Y-55881126D01*
X148984939Y-55718287D01*
X148984940Y-55718286D01*
X148988505Y-55715268D01*
X149080229Y-55610677D01*
X149157757Y-55522274D01*
X149157761Y-55522269D01*
X149160839Y-55518759D01*
X149302233Y-55298937D01*
X149409583Y-55060629D01*
X149480530Y-54809072D01*
X149497332Y-54676996D01*
X149513116Y-54552921D01*
X149513116Y-54552917D01*
X149513514Y-54549791D01*
X149515931Y-54457500D01*
X149496561Y-54196848D01*
X149485225Y-54146748D01*
X149439908Y-53946480D01*
X149438877Y-53941923D01*
X149344147Y-53698323D01*
X149214451Y-53471402D01*
X149052638Y-53266143D01*
X148862263Y-53087057D01*
X148647509Y-52938076D01*
X148643316Y-52936008D01*
X148417281Y-52824540D01*
X148417278Y-52824539D01*
X148413093Y-52822475D01*
X148366949Y-52807704D01*
X148168623Y-52744220D01*
X148164165Y-52742793D01*
X147906193Y-52700779D01*
X147792442Y-52699290D01*
X147649522Y-52697419D01*
X147649519Y-52697419D01*
X147644845Y-52697358D01*
X147385862Y-52732604D01*
X147134933Y-52805743D01*
X147130680Y-52807703D01*
X147130679Y-52807704D01*
X147094159Y-52824540D01*
X146897572Y-52915168D01*
X146858567Y-52940741D01*
X146682904Y-53055910D01*
X146682899Y-53055914D01*
X146678991Y-53058476D01*
X146483994Y-53232518D01*
X146316863Y-53433470D01*
X146181271Y-53656919D01*
X146080197Y-53897955D01*
X146015859Y-54151283D01*
X145989673Y-54411339D01*
X128511000Y-54411339D01*
X128511000Y-53159366D01*
X128504245Y-53097184D01*
X128453115Y-52960795D01*
X128365761Y-52844239D01*
X128249205Y-52756885D01*
X128112816Y-52705755D01*
X128050634Y-52699000D01*
X125454366Y-52699000D01*
X125392184Y-52705755D01*
X125255795Y-52756885D01*
X125139239Y-52844239D01*
X125051885Y-52960795D01*
X125000755Y-53097184D01*
X124994000Y-53159366D01*
X124994000Y-55755634D01*
X104140000Y-55755634D01*
X104140000Y-46911339D01*
X124989673Y-46911339D01*
X125002213Y-47172408D01*
X125053204Y-47428756D01*
X125141526Y-47674752D01*
X125143742Y-47678876D01*
X125208253Y-47798937D01*
X125265237Y-47904991D01*
X125268032Y-47908734D01*
X125268034Y-47908737D01*
X125418830Y-48110677D01*
X125418835Y-48110683D01*
X125421622Y-48114415D01*
X125424931Y-48117695D01*
X125424936Y-48117701D01*
X125603926Y-48295135D01*
X125607243Y-48298423D01*
X125611005Y-48301181D01*
X125611008Y-48301184D01*
X125814250Y-48450207D01*
X125818024Y-48452974D01*
X125822167Y-48455154D01*
X125822169Y-48455155D01*
X126045184Y-48572489D01*
X126045189Y-48572491D01*
X126049334Y-48574672D01*
X126296090Y-48660844D01*
X126300683Y-48661716D01*
X126548285Y-48708724D01*
X126548288Y-48708724D01*
X126552874Y-48709595D01*
X126683459Y-48714726D01*
X126809375Y-48719674D01*
X126809381Y-48719674D01*
X126814043Y-48719857D01*
X126893477Y-48711157D01*
X127069207Y-48691912D01*
X127069212Y-48691911D01*
X127073860Y-48691402D01*
X127186616Y-48661716D01*
X127322094Y-48626048D01*
X127322096Y-48626047D01*
X127326617Y-48624857D01*
X127566762Y-48521682D01*
X127789019Y-48384146D01*
X127792582Y-48381129D01*
X127792587Y-48381126D01*
X127984939Y-48218287D01*
X127984940Y-48218286D01*
X127988505Y-48215268D01*
X128080229Y-48110677D01*
X128157757Y-48022274D01*
X128157761Y-48022269D01*
X128160839Y-48018759D01*
X128302233Y-47798937D01*
X128409583Y-47560629D01*
X128480530Y-47309072D01*
X128497332Y-47176996D01*
X128513116Y-47052921D01*
X128513116Y-47052917D01*
X128513514Y-47049791D01*
X128515931Y-46957500D01*
X128512501Y-46911339D01*
X142489673Y-46911339D01*
X142502213Y-47172408D01*
X142553204Y-47428756D01*
X142641526Y-47674752D01*
X142643742Y-47678876D01*
X142708253Y-47798937D01*
X142765237Y-47904991D01*
X142768032Y-47908734D01*
X142768034Y-47908737D01*
X142918830Y-48110677D01*
X142918835Y-48110683D01*
X142921622Y-48114415D01*
X142924931Y-48117695D01*
X142924936Y-48117701D01*
X143103926Y-48295135D01*
X143107243Y-48298423D01*
X143111005Y-48301181D01*
X143111008Y-48301184D01*
X143314250Y-48450207D01*
X143318024Y-48452974D01*
X143322167Y-48455154D01*
X143322169Y-48455155D01*
X143545184Y-48572489D01*
X143545189Y-48572491D01*
X143549334Y-48574672D01*
X143796090Y-48660844D01*
X143800683Y-48661716D01*
X144048285Y-48708724D01*
X144048288Y-48708724D01*
X144052874Y-48709595D01*
X144183459Y-48714726D01*
X144309375Y-48719674D01*
X144309381Y-48719674D01*
X144314043Y-48719857D01*
X144393477Y-48711157D01*
X144569207Y-48691912D01*
X144569212Y-48691911D01*
X144573860Y-48691402D01*
X144686616Y-48661716D01*
X144822094Y-48626048D01*
X144822096Y-48626047D01*
X144826617Y-48624857D01*
X145066762Y-48521682D01*
X145289019Y-48384146D01*
X145292582Y-48381129D01*
X145292587Y-48381126D01*
X145484939Y-48218287D01*
X145484940Y-48218286D01*
X145488505Y-48215268D01*
X145580229Y-48110677D01*
X145657757Y-48022274D01*
X145657761Y-48022269D01*
X145660839Y-48018759D01*
X145802233Y-47798937D01*
X145909583Y-47560629D01*
X145980530Y-47309072D01*
X145997332Y-47176996D01*
X146013116Y-47052921D01*
X146013116Y-47052917D01*
X146013514Y-47049791D01*
X146015931Y-46957500D01*
X145996561Y-46696848D01*
X145985225Y-46646748D01*
X145939908Y-46446480D01*
X145938877Y-46441923D01*
X145844147Y-46198323D01*
X145714451Y-45971402D01*
X145552638Y-45766143D01*
X145362263Y-45587057D01*
X145147509Y-45438076D01*
X145143316Y-45436008D01*
X144917281Y-45324540D01*
X144917278Y-45324539D01*
X144913093Y-45322475D01*
X144866949Y-45307704D01*
X144668623Y-45244220D01*
X144664165Y-45242793D01*
X144406193Y-45200779D01*
X144292442Y-45199290D01*
X144149522Y-45197419D01*
X144149519Y-45197419D01*
X144144845Y-45197358D01*
X143885862Y-45232604D01*
X143634933Y-45305743D01*
X143630680Y-45307703D01*
X143630679Y-45307704D01*
X143594159Y-45324540D01*
X143397572Y-45415168D01*
X143358567Y-45440741D01*
X143182904Y-45555910D01*
X143182899Y-45555914D01*
X143178991Y-45558476D01*
X142983994Y-45732518D01*
X142816863Y-45933470D01*
X142681271Y-46156919D01*
X142580197Y-46397955D01*
X142515859Y-46651283D01*
X142489673Y-46911339D01*
X128512501Y-46911339D01*
X128496561Y-46696848D01*
X128485225Y-46646748D01*
X128439908Y-46446480D01*
X128438877Y-46441923D01*
X128344147Y-46198323D01*
X128214451Y-45971402D01*
X128052638Y-45766143D01*
X127862263Y-45587057D01*
X127647509Y-45438076D01*
X127643316Y-45436008D01*
X127417281Y-45324540D01*
X127417278Y-45324539D01*
X127413093Y-45322475D01*
X127366949Y-45307704D01*
X127168623Y-45244220D01*
X127164165Y-45242793D01*
X126906193Y-45200779D01*
X126792442Y-45199290D01*
X126649522Y-45197419D01*
X126649519Y-45197419D01*
X126644845Y-45197358D01*
X126385862Y-45232604D01*
X126134933Y-45305743D01*
X126130680Y-45307703D01*
X126130679Y-45307704D01*
X126094159Y-45324540D01*
X125897572Y-45415168D01*
X125858567Y-45440741D01*
X125682904Y-45555910D01*
X125682899Y-45555914D01*
X125678991Y-45558476D01*
X125483994Y-45732518D01*
X125316863Y-45933470D01*
X125181271Y-46156919D01*
X125080197Y-46397955D01*
X125015859Y-46651283D01*
X124989673Y-46911339D01*
X104140000Y-46911339D01*
X104140000Y-33146000D01*
X104160002Y-33077879D01*
X104213658Y-33031386D01*
X104266000Y-33020000D01*
X187834000Y-33020000D01*
X187902121Y-33040002D01*
G37*
%TD.AperFunction*%
M02*
