%TF.GenerationSoftware,KiCad,Pcbnew,(6.0.4)*%
%TF.CreationDate,2022-06-07T17:35:18+05:30*%
%TF.ProjectId,sneka batch,736e656b-6120-4626-9174-63682e6b6963,rev?*%
%TF.SameCoordinates,Original*%
%TF.FileFunction,Legend,Top*%
%TF.FilePolarity,Positive*%
%FSLAX46Y46*%
G04 Gerber Fmt 4.6, Leading zero omitted, Abs format (unit mm)*
G04 Created by KiCad (PCBNEW (6.0.4)) date 2022-06-07 17:35:18*
%MOMM*%
%LPD*%
G01*
G04 APERTURE LIST*
%ADD10C,0.150000*%
%ADD11C,0.120000*%
G04 APERTURE END LIST*
D10*
%TO.C,J2*%
X131532380Y-63203333D02*
X132246666Y-63203333D01*
X132389523Y-63250952D01*
X132484761Y-63346190D01*
X132532380Y-63489047D01*
X132532380Y-63584285D01*
X131627619Y-62774761D02*
X131580000Y-62727142D01*
X131532380Y-62631904D01*
X131532380Y-62393809D01*
X131580000Y-62298571D01*
X131627619Y-62250952D01*
X131722857Y-62203333D01*
X131818095Y-62203333D01*
X131960952Y-62250952D01*
X132532380Y-62822380D01*
X132532380Y-62203333D01*
%TO.C,RV1*%
X145752380Y-74215238D02*
X145276190Y-74548571D01*
X145752380Y-74786666D02*
X144752380Y-74786666D01*
X144752380Y-74405714D01*
X144800000Y-74310476D01*
X144847619Y-74262857D01*
X144942857Y-74215238D01*
X145085714Y-74215238D01*
X145180952Y-74262857D01*
X145228571Y-74310476D01*
X145276190Y-74405714D01*
X145276190Y-74786666D01*
X144752380Y-73929523D02*
X145752380Y-73596190D01*
X144752380Y-73262857D01*
X145752380Y-72405714D02*
X145752380Y-72977142D01*
X145752380Y-72691428D02*
X144752380Y-72691428D01*
X144895238Y-72786666D01*
X144990476Y-72881904D01*
X145038095Y-72977142D01*
%TO.C,R1*%
X172552380Y-66206666D02*
X172076190Y-66540000D01*
X172552380Y-66778095D02*
X171552380Y-66778095D01*
X171552380Y-66397142D01*
X171600000Y-66301904D01*
X171647619Y-66254285D01*
X171742857Y-66206666D01*
X171885714Y-66206666D01*
X171980952Y-66254285D01*
X172028571Y-66301904D01*
X172076190Y-66397142D01*
X172076190Y-66778095D01*
X172552380Y-65254285D02*
X172552380Y-65825714D01*
X172552380Y-65540000D02*
X171552380Y-65540000D01*
X171695238Y-65635238D01*
X171790476Y-65730476D01*
X171838095Y-65825714D01*
%TO.C,Q2*%
X144307619Y-62325238D02*
X144260000Y-62420476D01*
X144164761Y-62515714D01*
X144021904Y-62658571D01*
X143974285Y-62753809D01*
X143974285Y-62849047D01*
X144212380Y-62801428D02*
X144164761Y-62896666D01*
X144069523Y-62991904D01*
X143879047Y-63039523D01*
X143545714Y-63039523D01*
X143355238Y-62991904D01*
X143260000Y-62896666D01*
X143212380Y-62801428D01*
X143212380Y-62610952D01*
X143260000Y-62515714D01*
X143355238Y-62420476D01*
X143545714Y-62372857D01*
X143879047Y-62372857D01*
X144069523Y-62420476D01*
X144164761Y-62515714D01*
X144212380Y-62610952D01*
X144212380Y-62801428D01*
X143307619Y-61991904D02*
X143260000Y-61944285D01*
X143212380Y-61849047D01*
X143212380Y-61610952D01*
X143260000Y-61515714D01*
X143307619Y-61468095D01*
X143402857Y-61420476D01*
X143498095Y-61420476D01*
X143640952Y-61468095D01*
X144212380Y-62039523D01*
X144212380Y-61420476D01*
%TO.C,Q1*%
X161194761Y-68107619D02*
X161099523Y-68060000D01*
X161004285Y-67964761D01*
X160861428Y-67821904D01*
X160766190Y-67774285D01*
X160670952Y-67774285D01*
X160718571Y-68012380D02*
X160623333Y-67964761D01*
X160528095Y-67869523D01*
X160480476Y-67679047D01*
X160480476Y-67345714D01*
X160528095Y-67155238D01*
X160623333Y-67060000D01*
X160718571Y-67012380D01*
X160909047Y-67012380D01*
X161004285Y-67060000D01*
X161099523Y-67155238D01*
X161147142Y-67345714D01*
X161147142Y-67679047D01*
X161099523Y-67869523D01*
X161004285Y-67964761D01*
X160909047Y-68012380D01*
X160718571Y-68012380D01*
X162099523Y-68012380D02*
X161528095Y-68012380D01*
X161813809Y-68012380D02*
X161813809Y-67012380D01*
X161718571Y-67155238D01*
X161623333Y-67250476D01*
X161528095Y-67298095D01*
%TO.C,K1*%
X124744880Y-48115595D02*
X123744880Y-48115595D01*
X124744880Y-47544166D02*
X124173452Y-47972738D01*
X123744880Y-47544166D02*
X124316309Y-48115595D01*
X124744880Y-46591785D02*
X124744880Y-47163214D01*
X124744880Y-46877500D02*
X123744880Y-46877500D01*
X123887738Y-46972738D01*
X123982976Y-47067976D01*
X124030595Y-47163214D01*
%TO.C,J1*%
X134072380Y-73363333D02*
X134786666Y-73363333D01*
X134929523Y-73410952D01*
X135024761Y-73506190D01*
X135072380Y-73649047D01*
X135072380Y-73744285D01*
X135072380Y-72363333D02*
X135072380Y-72934761D01*
X135072380Y-72649047D02*
X134072380Y-72649047D01*
X134215238Y-72744285D01*
X134310476Y-72839523D01*
X134358095Y-72934761D01*
%TO.C,D1*%
X159281904Y-61342380D02*
X159281904Y-60342380D01*
X159520000Y-60342380D01*
X159662857Y-60390000D01*
X159758095Y-60485238D01*
X159805714Y-60580476D01*
X159853333Y-60770952D01*
X159853333Y-60913809D01*
X159805714Y-61104285D01*
X159758095Y-61199523D01*
X159662857Y-61294761D01*
X159520000Y-61342380D01*
X159281904Y-61342380D01*
X160805714Y-61342380D02*
X160234285Y-61342380D01*
X160520000Y-61342380D02*
X160520000Y-60342380D01*
X160424761Y-60485238D01*
X160329523Y-60580476D01*
X160234285Y-60628095D01*
X164838095Y-60972380D02*
X164838095Y-59972380D01*
X165409523Y-60972380D02*
X164980952Y-60400952D01*
X165409523Y-59972380D02*
X164838095Y-60543809D01*
D11*
%TO.C,J2*%
X129160000Y-60070000D02*
X129160000Y-65660000D01*
X128910000Y-58800000D02*
X128910000Y-66930000D01*
X128910000Y-58800000D02*
X127000000Y-58800000D01*
X128910000Y-66930000D02*
X127000000Y-66930000D01*
X122170000Y-66930000D02*
X127000000Y-66930000D01*
X130300000Y-60070000D02*
X130300000Y-65660000D01*
X122170000Y-63250000D02*
X122170000Y-66930000D01*
X122430000Y-63250000D02*
X122170000Y-63250000D01*
X129200000Y-59760000D02*
X129200000Y-58460000D01*
X128910000Y-60070000D02*
X130300000Y-60070000D01*
X129200000Y-58460000D02*
X127000000Y-58460000D01*
X127000000Y-58800000D02*
X122170000Y-58800000D01*
X122170000Y-62480000D02*
X122170000Y-58800000D01*
X122170000Y-62480000D02*
X122430000Y-62480000D01*
X130050000Y-60070000D02*
X130050000Y-65660000D01*
X128910000Y-65660000D02*
X130300000Y-65660000D01*
X122430000Y-62480000D02*
X122430000Y-63250000D01*
%TO.C,RV1*%
X153130000Y-72695000D02*
X153130000Y-70000000D01*
X148740000Y-70000000D02*
X150980000Y-70000000D01*
X146590000Y-70000000D02*
X153130000Y-70000000D01*
X148426000Y-73741000D02*
X151295000Y-73741000D01*
X148740000Y-73741000D02*
X148740000Y-70000000D01*
X150980000Y-73741000D02*
X150980000Y-70000000D01*
X148740000Y-73741000D02*
X150980000Y-73741000D01*
X146590000Y-72695000D02*
X146590000Y-70000000D01*
%TO.C,R1*%
X169260000Y-64120000D02*
X169260000Y-67960000D01*
X171100000Y-64120000D02*
X171100000Y-67960000D01*
%TO.C,Q2*%
X149170000Y-64030000D02*
X149170000Y-60430000D01*
X149158478Y-60391522D02*
G75*
G03*
X144720000Y-62230000I-1838478J-1838478D01*
G01*
X144719999Y-62230000D02*
G75*
G03*
X149158478Y-64068478I2600001J0D01*
G01*
%TO.C,Q1*%
X159490000Y-72970000D02*
X163090000Y-72970000D01*
X163128478Y-72958478D02*
G75*
G03*
X161290000Y-68520000I-1838478J1838478D01*
G01*
X161290000Y-68519999D02*
G75*
G03*
X159451522Y-72958478I0J-2600001D01*
G01*
%TO.C,K1*%
X125752500Y-50307500D02*
X125752500Y-51007500D01*
X126952500Y-51007500D02*
X126952500Y-50307500D01*
X149402500Y-45557500D02*
X149402500Y-55857500D01*
X126552500Y-51007500D02*
X126152500Y-50307500D01*
X125102500Y-55857500D02*
X125442500Y-55857500D01*
X125102500Y-45557500D02*
X126242500Y-45557500D01*
X127192500Y-56107500D02*
X124852500Y-56107500D01*
X149402500Y-55857500D02*
X148262500Y-55857500D01*
X128062500Y-55857500D02*
X147242500Y-55857500D01*
X125752500Y-51007500D02*
X126952500Y-51007500D01*
X127262500Y-45557500D02*
X143742500Y-45557500D01*
X126952500Y-50307500D02*
X125752500Y-50307500D01*
X125102500Y-45557500D02*
X125102500Y-55857500D01*
X144802500Y-45567500D02*
X149402500Y-45557500D01*
X124852500Y-56107500D02*
X124852500Y-53707500D01*
%TO.C,J1*%
X131700000Y-70230000D02*
X131700000Y-75820000D01*
X131450000Y-68960000D02*
X131450000Y-77090000D01*
X131450000Y-68960000D02*
X129540000Y-68960000D01*
X131450000Y-77090000D02*
X129540000Y-77090000D01*
X124710000Y-77090000D02*
X129540000Y-77090000D01*
X132840000Y-70230000D02*
X132840000Y-75820000D01*
X124710000Y-73410000D02*
X124710000Y-77090000D01*
X124970000Y-73410000D02*
X124710000Y-73410000D01*
X131740000Y-69920000D02*
X131740000Y-68620000D01*
X131450000Y-70230000D02*
X132840000Y-70230000D01*
X131740000Y-68620000D02*
X129540000Y-68620000D01*
X129540000Y-68960000D02*
X124710000Y-68960000D01*
X124710000Y-72640000D02*
X124710000Y-68960000D01*
X124710000Y-72640000D02*
X124970000Y-72640000D01*
X132590000Y-70230000D02*
X132590000Y-75820000D01*
X131450000Y-75820000D02*
X132840000Y-75820000D01*
X124970000Y-72640000D02*
X124970000Y-73410000D01*
%TO.C,D1*%
X161840000Y-59890000D02*
X161840000Y-56950000D01*
X161720000Y-59890000D02*
X161720000Y-56950000D01*
X162740000Y-56950000D02*
X157300000Y-56950000D01*
X156280000Y-58420000D02*
X157300000Y-58420000D01*
X162740000Y-59890000D02*
X162740000Y-56950000D01*
X161960000Y-59890000D02*
X161960000Y-56950000D01*
X157300000Y-56950000D02*
X157300000Y-59890000D01*
X163760000Y-58420000D02*
X162740000Y-58420000D01*
X157300000Y-59890000D02*
X162740000Y-59890000D01*
%TD*%
M02*
