M48
; DRILL file {KiCad (6.0.4)} date Tue Jun  7 17:35:23 2022
; FORMAT={-:-/ absolute / metric / decimal}
; #@! TF.CreationDate,2022-06-07T17:35:23+05:30
; #@! TF.GenerationSoftware,Kicad,Pcbnew,(6.0.4)
; #@! TF.FileFunction,MixedPlating,1,2
FMAT,2
METRIC
; #@! TA.AperFunction,Plated,PTH,ComponentDrill
T1C0.700
; #@! TA.AperFunction,Plated,PTH,ComponentDrill
T2C0.750
; #@! TA.AperFunction,Plated,PTH,ComponentDrill
T3C0.900
; #@! TA.AperFunction,Plated,PTH,ComponentDrill
T4C1.100
; #@! TA.AperFunction,Plated,PTH,ComponentDrill
T5C1.200
; #@! TA.AperFunction,Plated,PTH,ComponentDrill
T6C1.750
%
G90
G05
T1
X170.18Y-63.5
X170.18Y-68.58
T2
X147.32Y-60.96
X147.32Y-62.23
X147.32Y-63.5
X160.02Y-71.12
X161.29Y-71.12
X162.56Y-71.12
T3
X147.36Y-73.62
X149.86Y-71.12
X152.36Y-73.62
T4
X154.94Y-58.42
X165.1Y-58.42
T5
X126.752Y-46.957
X126.752Y-54.457
X144.252Y-46.957
X147.752Y-54.457
T6
X127.0Y-60.96
X127.0Y-64.84
X129.54Y-71.12
X129.54Y-75.0
T0
M30
